<?xml version="1.0" encoding="UTF-8" standalone="no"?>
<!DOCTYPE svg PUBLIC "-//W3C//DTD SVG 1.1//EN"
 "http://www.w3.org/Graphics/SVG/1.1/DTD/svg11.dtd">
<!-- Generated by graphviz version 13.1.2 (20250808.2320)
 -->
<!-- Title: svg::svg_element::svg_element Pages: 1 -->
<!--zoomable 174 -->

<svg id="main" version="1.1" xmlns="http://www.w3.org/2000/svg" xmlns:xlink="http://www.w3.org/1999/xlink" xml:space="preserve" onload="init(evt)">

<style type="text/css"><![CDATA[
.node, .edge {opacity: 0.7;}
.node.selected, .edge.selected {opacity: 1;}
.edge:hover path { stroke: red; }
.edge:hover polygon { stroke: red; fill: red; }
]]></style>

<defs>
  <circle id="rim" cx="0" cy="0" r="7"/>
  <circle id="rim2" cx="0" cy="0" r="3.5"/>
  <g id="zoomPlus">
    <use xlink:href="#rim" fill="#404040"><set attributeName="fill" to="#808080" begin="zoomplus.mouseover" end="zoomplus.mouseout"/></use>
    <path d="M-4,0h8M0,-4v8" fill="none" stroke="white" stroke-width="1.5" pointer-events="none"/>
  </g>
  <g id="zoomMin">
    <use xlink:href="#rim" fill="#404040"><set attributeName="fill" to="#808080" begin="zoomminus.mouseover" end="zoomminus.mouseout"/></use>
    <path d="M-4,0h8" fill="none" stroke="white" stroke-width="1.5" pointer-events="none"/>
  </g>
  <g id="arrowUp" transform="translate(30 24)">
    <use xlink:href="#rim"/>
    <path pointer-events="none" fill="none" stroke="white" stroke-width="1.5" d="M0,-3.0v7 M-2.5,-0.5L0,-3.0L2.5,-0.5"/>
  </g>
  <g id="arrowRight" transform="rotate(90) translate(36 -43)">
    <use xlink:href="#rim"/>
    <path pointer-events="none" fill="none" stroke="white" stroke-width="1.5" d="M0,-3.0v7 M-2.5,-0.5L0,-3.0L2.5,-0.5"/>
  </g>
  <g id="arrowDown" transform="rotate(180) translate(-30 -48)">
    <use xlink:href="#rim"/>
    <path pointer-events="none" fill="none" stroke="white" stroke-width="1.5" d="M0,-3.0v7 M-2.5,-0.5L0,-3.0L2.5,-0.5"/>
  </g>
  <g id="arrowLeft" transform="rotate(270) translate(-36 17)">
    <use xlink:href="#rim"/>
    <path pointer-events="none" fill="none" stroke="white" stroke-width="1.5" d="M0,-3.0v7 M-2.5,-0.5L0,-3.0L2.5,-0.5"/>
  </g>
  <g id="resetDef">
    <use xlink:href="#rim2" fill="#404040"><set attributeName="fill" to="#808080" begin="reset.mouseover" end="reset.mouseout"/></use>
  </g>
</defs>
<script type="application/ecmascript">
var viewWidth = 997;
var viewHeight = 174;
var sectionId = 'dynsection-85';
</script>
<script type="application/ecmascript" xlink:href="svg.min.js"/>
<svg id="graph" class="graph">
<g id="viewport">
<title>svg::svg_element::svg_element</title>
<!-- Node1 -->
<g id="Node000001" class="node">
<title>Node1</title>
<g id="a_Node000001"><a xlink:title=" ">
<polygon fill="#999999" stroke="#666666" points="108.25,-50.5 0,-50.5 0,-23 108.25,-23 108.25,-50.5"/>
<text xml:space="preserve" text-anchor="start" x="8" y="-38.9" font-family="SourceSans" font-size="8.00">svg::svg_element::svg</text>
<text xml:space="preserve" text-anchor="middle" x="54.12" y="-29.15" font-family="SourceSans" font-size="8.00">_element</text>
</a>
</g>
</g>
<!-- Node2 -->
<g id="Node000002" class="node">
<title>Node2</title>
<g id="a_Node000002"><a xlink:href="group__elements.html#a96bc893c1f6bd92d73f6f18a5d7a29b4" target="_top" xlink:title=" ">
<polygon fill="white" stroke="#666666" points="252.5,-50.5 144.25,-50.5 144.25,-23 252.5,-23 252.5,-50.5"/>
<text xml:space="preserve" text-anchor="start" x="152.25" y="-38.9" font-family="SourceSans" font-size="8.00">svg::svg_element::svg</text>
<text xml:space="preserve" text-anchor="middle" x="198.38" y="-29.15" font-family="SourceSans" font-size="8.00">_element</text>
</a>
</g>
</g>
<!-- Node1&#45;&gt;Node2 -->
<g id="edge1_Node000001_Node000002" class="edge">
<title>Node1&#45;&gt;Node2</title>
<g id="a_edge1_Node000001_Node000002"><a xlink:title=" ">
<path fill="none" stroke="#63b8ff" d="M108.5,-36.75C116.43,-36.75 124.67,-36.75 132.8,-36.75"/>
<polygon fill="#63b8ff" stroke="#63b8ff" points="132.66,-40.25 142.66,-36.75 132.66,-33.25 132.66,-40.25"/>
</a>
</g>
</g>
<!-- Node3 -->
<g id="Node000003" class="node">
<title>Node3</title>
<g id="a_Node000003"><a xlink:href="group__elements.html#a427e385a78a537bf24b6c3bcb6320365" target="_top" xlink:title=" ">
<polygon fill="white" stroke="#666666" points="401.25,-45.62 288.5,-45.62 288.5,-27.88 401.25,-27.88 401.25,-45.62"/>
<text xml:space="preserve" text-anchor="middle" x="344.88" y="-34.02" font-family="SourceSans" font-size="8.00">svg::svg_element::start</text>
</a>
</g>
</g>
<!-- Node2&#45;&gt;Node3 -->
<g id="edge2_Node000002_Node000003" class="edge">
<title>Node2&#45;&gt;Node3</title>
<g id="a_edge2_Node000002_Node000003"><a xlink:title=" ">
<path fill="none" stroke="#63b8ff" d="M252.77,-36.75C260.64,-36.75 268.83,-36.75 276.93,-36.75"/>
<polygon fill="#63b8ff" stroke="#63b8ff" points="276.77,-40.25 286.77,-36.75 276.77,-33.25 276.77,-40.25"/>
</a>
</g>
</g>
<!-- Node4 -->
<g id="Node000004" class="node">
<title>Node4</title>
<g id="a_Node000004"><a xlink:href="group__elements.html#a4a6af4e23b9f79f07d58780c128c5638" target="_top" xlink:title=" ">
<polygon fill="white" stroke="#666666" points="570.25,-134.62 437.25,-134.62 437.25,-116.88 570.25,-116.88 570.25,-134.62"/>
<text xml:space="preserve" text-anchor="middle" x="503.75" y="-123.03" font-family="SourceSans" font-size="8.00">svg::svg_element::add_desc</text>
</a>
</g>
</g>
<!-- Node3&#45;&gt;Node4 -->
<g id="edge3_Node000003_Node000004" class="edge">
<title>Node3&#45;&gt;Node4</title>
<g id="a_edge3_Node000003_Node000004"><a xlink:title=" ">
<path fill="none" stroke="#63b8ff" d="M362.37,-46.11C389.62,-61.57 444.28,-92.58 476.77,-111.01"/>
<polygon fill="#63b8ff" stroke="#63b8ff" points="474.74,-113.88 485.16,-115.77 478.19,-107.79 474.74,-113.88"/>
</a>
</g>
</g>
<!-- Node9 -->
<g id="Node000009" class="node">
<title>Node9</title>
<g id="a_Node000009"><a xlink:href="group__elements.html#a26869d2a66e57c0d83f2df21d25cd875" target="_top" xlink:title=" ">
<polygon fill="white" stroke="#666666" points="558.62,-73.5 448.88,-73.5 448.88,-46 558.62,-46 558.62,-73.5"/>
<text xml:space="preserve" text-anchor="start" x="456.88" y="-61.9" font-family="SourceSans" font-size="8.00">svg::svg_element::add</text>
<text xml:space="preserve" text-anchor="middle" x="503.75" y="-52.15" font-family="SourceSans" font-size="8.00">_title</text>
</a>
</g>
</g>
<!-- Node3&#45;&gt;Node9 -->
<g id="edge8_Node000003_Node000009" class="edge">
<title>Node3&#45;&gt;Node9</title>
<g id="a_edge8_Node000003_Node000009"><a xlink:title=" ">
<path fill="none" stroke="#63b8ff" d="M401.62,-44.92C413.17,-46.62 425.43,-48.41 437.29,-50.15"/>
<polygon fill="#63b8ff" stroke="#63b8ff" points="436.6,-53.59 447,-51.58 437.61,-46.66 436.6,-53.59"/>
</a>
</g>
</g>
<!-- Node13 -->
<g id="Node000013" class="node">
<title>Node13</title>
<g id="a_Node000013"><a xlink:href="group__elements.html#a4afa7d83ef0fe47412b62f56f1c3ae11" target="_top" xlink:title="Default.">
<polygon fill="white" stroke="#666666" points="560.12,-27.5 447.38,-27.5 447.38,0 560.12,0 560.12,-27.5"/>
<text xml:space="preserve" text-anchor="start" x="455.38" y="-15.9" font-family="SourceSans" font-size="8.00">svg::svg_element::start</text>
<text xml:space="preserve" text-anchor="middle" x="503.75" y="-6.15" font-family="SourceSans" font-size="8.00">_element</text>
</a>
</g>
</g>
<!-- Node3&#45;&gt;Node13 -->
<g id="edge13_Node000003_Node000013" class="edge">
<title>Node3&#45;&gt;Node13</title>
<g id="a_edge13_Node000003_Node000013"><a xlink:title=" ">
<path fill="none" stroke="#63b8ff" d="M373.56,-27.4C390.86,-23.69 413.94,-19.84 435.8,-16.88"/>
<polygon fill="#63b8ff" stroke="#63b8ff" points="436.11,-20.37 445.58,-15.62 435.22,-13.43 436.11,-20.37"/>
</a>
</g>
</g>
<!-- Node5 -->
<g id="Node000005" class="node">
<title>Node5</title>
<g id="a_Node000005"><a xlink:href="group__elements.html#ada0333b46b2547c6152f3f5811016a12" target="_top" xlink:title=" ">
<polygon fill="white" stroke="#666666" points="842.25,-161.5 742.25,-161.5 742.25,-134 842.25,-134 842.25,-161.5"/>
<text xml:space="preserve" text-anchor="start" x="750.25" y="-149.9" font-family="SourceSans" font-size="8.00">svg::element_base::</text>
<text xml:space="preserve" text-anchor="middle" x="792.25" y="-140.15" font-family="SourceSans" font-size="8.00">add_element</text>
</a>
</g>
</g>
<!-- Node4&#45;&gt;Node5 -->
<g id="edge4_Node000004_Node000005" class="edge">
<title>Node4&#45;&gt;Node5</title>
<g id="a_edge4_Node000004_Node000005"><a xlink:title=" ">
<path fill="none" stroke="#63b8ff" d="M524.43,-135C544.49,-143.88 576.77,-156.68 606.25,-161.75 647.53,-168.85 694.61,-165.13 730.95,-159.74"/>
<polygon fill="#63b8ff" stroke="#63b8ff" points="731.03,-163.27 740.37,-158.26 729.94,-156.36 731.03,-163.27"/>
</a>
</g>
</g>
<!-- Node7 -->
<g id="Node000007" class="node">
<title>Node7</title>
<g id="a_Node000007"><a xlink:href="group__elements.html#ga03da556ae8f749df1cf8463111e996d3" target="_top" xlink:title=" ">
<polygon fill="white" stroke="#666666" points="705.88,-152.5 606.62,-152.5 606.62,-125 705.88,-125 705.88,-152.5"/>
<text xml:space="preserve" text-anchor="start" x="614.62" y="-140.9" font-family="SourceSans" font-size="8.00">svg::desc_element::</text>
<text xml:space="preserve" text-anchor="middle" x="656.25" y="-131.15" font-family="SourceSans" font-size="8.00">finish_element</text>
</a>
</g>
</g>
<!-- Node4&#45;&gt;Node7 -->
<g id="edge6_Node000004_Node000007" class="edge">
<title>Node4&#45;&gt;Node7</title>
<g id="a_edge6_Node000004_Node000007"><a xlink:title=" ">
<path fill="none" stroke="#63b8ff" d="M570.32,-131.41C578.51,-132.12 586.85,-132.84 594.94,-133.54"/>
<polygon fill="#63b8ff" stroke="#63b8ff" points="594.42,-137.01 604.68,-134.38 595.02,-130.03 594.42,-137.01"/>
</a>
</g>
</g>
<!-- Node8 -->
<g id="Node000008" class="node">
<title>Node8</title>
<g id="a_Node000008"><a xlink:href="group__elements.html#a90ffdd73579c45cd0740dc9efa2f5445" target="_top" xlink:title=" ">
<polygon fill="white" stroke="#666666" points="705.88,-106.5 606.62,-106.5 606.62,-79 705.88,-79 705.88,-106.5"/>
<text xml:space="preserve" text-anchor="start" x="614.62" y="-94.9" font-family="SourceSans" font-size="8.00">svg::desc_element::</text>
<text xml:space="preserve" text-anchor="middle" x="656.25" y="-85.15" font-family="SourceSans" font-size="8.00">start_element</text>
</a>
</g>
</g>
<!-- Node4&#45;&gt;Node8 -->
<g id="edge7_Node000004_Node000008" class="edge">
<title>Node4&#45;&gt;Node8</title>
<g id="a_edge7_Node000004_Node000008"><a xlink:title=" ">
<path fill="none" stroke="#63b8ff" d="M547.47,-116.38C562.37,-113.12 579.38,-109.39 595.41,-105.87"/>
<polygon fill="#63b8ff" stroke="#63b8ff" points="595.82,-109.37 604.83,-103.8 594.32,-102.53 595.82,-109.37"/>
</a>
</g>
</g>
<!-- Node6 -->
<g id="Node000006" class="node">
<title>Node6</title>
<g id="a_Node000006"><a xlink:href="group__elements.html#ad893ef9c13a15464c96d8a85c08af30f" target="_top" xlink:title=" ">
<polygon fill="white" stroke="#666666" points="988.75,-156.62 878.25,-156.62 878.25,-138.88 988.75,-138.88 988.75,-156.62"/>
<text xml:space="preserve" text-anchor="middle" x="933.5" y="-145.03" font-family="SourceSans" font-size="8.00">svg::element_base::str</text>
</a>
</g>
</g>
<!-- Node5&#45;&gt;Node6 -->
<g id="edge5_Node000005_Node000006" class="edge">
<title>Node5&#45;&gt;Node6</title>
<g id="a_edge5_Node000005_Node000006"><a xlink:title=" ">
<path fill="none" stroke="#63b8ff" d="M842.74,-147.75C850.49,-147.75 858.62,-147.75 866.67,-147.75"/>
<polygon fill="#63b8ff" stroke="#63b8ff" points="866.45,-151.25 876.45,-147.75 866.45,-144.25 866.45,-151.25"/>
</a>
</g>
</g>
<!-- Node10 -->
<g id="Node000010" class="node">
<title>Node10</title>
<g id="a_Node000010"><a xlink:href="group__elements.html#a7995b78d94e1c299065c9dd3569fef7c" target="_top" xlink:title=" ">
<polygon fill="white" stroke="#666666" points="706.25,-60.5 606.25,-60.5 606.25,-33 706.25,-33 706.25,-60.5"/>
<text xml:space="preserve" text-anchor="start" x="614.25" y="-48.9" font-family="SourceSans" font-size="8.00">svg::element_base::</text>
<text xml:space="preserve" text-anchor="middle" x="656.25" y="-39.15" font-family="SourceSans" font-size="8.00">add_title</text>
</a>
</g>
</g>
<!-- Node9&#45;&gt;Node10 -->
<g id="edge9_Node000009_Node000010" class="edge">
<title>Node9&#45;&gt;Node10</title>
<g id="a_edge9_Node000009_Node000010"><a xlink:title=" ">
<path fill="none" stroke="#63b8ff" d="M559.08,-55.06C570.7,-54.05 583.03,-52.99 594.86,-51.97"/>
<polygon fill="#63b8ff" stroke="#63b8ff" points="594.83,-55.48 604.49,-51.13 594.22,-48.51 594.83,-55.48"/>
</a>
</g>
</g>
<!-- Node10&#45;&gt;Node5 -->
<g id="edge10_Node000010_Node000005" class="edge">
<title>Node10&#45;&gt;Node5</title>
<g id="a_edge10_Node000010_Node000005"><a xlink:title=" ">
<path fill="none" stroke="#63b8ff" d="M690.94,-60.9C696.21,-63.58 701.49,-66.56 706.25,-69.75 730.33,-85.9 754.36,-108.73 770.69,-125.51"/>
<polygon fill="#63b8ff" stroke="#63b8ff" points="768.01,-127.77 777.45,-132.58 773.07,-122.93 768.01,-127.77"/>
</a>
</g>
</g>
<!-- Node11 -->
<g id="Node000011" class="node">
<title>Node11</title>
<g id="a_Node000011"><a xlink:href="group__elements.html#ga3d62381f8edcccd3d91f82af55f11274" target="_top" xlink:title=" ">
<polygon fill="white" stroke="#666666" points="837,-83.5 747.5,-83.5 747.5,-56 837,-56 837,-83.5"/>
<text xml:space="preserve" text-anchor="start" x="755.5" y="-71.9" font-family="SourceSans" font-size="8.00">svg::title_element</text>
<text xml:space="preserve" text-anchor="middle" x="792.25" y="-62.15" font-family="SourceSans" font-size="8.00">::finish_element</text>
</a>
</g>
</g>
<!-- Node10&#45;&gt;Node11 -->
<g id="edge11_Node000010_Node000011" class="edge">
<title>Node10&#45;&gt;Node11</title>
<g id="a_edge11_Node000010_Node000011"><a xlink:title=" ">
<path fill="none" stroke="#63b8ff" d="M706.39,-55.18C716.05,-56.84 726.25,-58.59 736.09,-60.28"/>
<polygon fill="#63b8ff" stroke="#63b8ff" points="735.5,-63.73 745.95,-61.97 736.68,-56.83 735.5,-63.73"/>
</a>
</g>
</g>
<!-- Node12 -->
<g id="Node000012" class="node">
<title>Node12</title>
<g id="a_Node000012"><a xlink:href="group__elements.html#a41dcaa1132c502cb86c01aae1e7b9ff2" target="_top" xlink:title=" ">
<polygon fill="white" stroke="#666666" points="837,-37.5 747.5,-37.5 747.5,-10 837,-10 837,-37.5"/>
<text xml:space="preserve" text-anchor="start" x="755.5" y="-25.9" font-family="SourceSans" font-size="8.00">svg::title_element</text>
<text xml:space="preserve" text-anchor="middle" x="792.25" y="-16.15" font-family="SourceSans" font-size="8.00">::start_element</text>
</a>
</g>
</g>
<!-- Node10&#45;&gt;Node12 -->
<g id="edge12_Node000010_Node000012" class="edge">
<title>Node10&#45;&gt;Node12</title>
<g id="a_edge12_Node000010_Node000012"><a xlink:title=" ">
<path fill="none" stroke="#63b8ff" d="M706.39,-38.32C716.05,-36.66 726.25,-34.91 736.09,-33.22"/>
<polygon fill="#63b8ff" stroke="#63b8ff" points="736.68,-36.67 745.95,-31.53 735.5,-29.77 736.68,-36.67"/>
</a>
</g>
</g>
<!-- Node13&#45;&gt;Node3 -->
<g id="edge14_Node000013_Node000003" class="edge">
<title>Node13&#45;&gt;Node3</title>
<g id="a_edge14_Node000013_Node000003"><a xlink:title=" ">
<path fill="none" stroke="#63b8ff" d="M449.55,-27.98C437.73,-30.02 425.05,-31.97 412.77,-33.63"/>
<polygon fill="#63b8ff" stroke="#63b8ff" points="412.59,-30.12 403.13,-34.87 413.49,-37.06 412.59,-30.12"/>
</a>
</g>
</g>
</g>
</svg>

<g id="navigator" transform="translate(0 0)" fill="#404254">
  <rect fill="#f2f5e9" fill-opacity="0.5" stroke="#606060" stroke-width=".5" x="0" y="0" width="60" height="60"/>
  <use id="zoomplus" xlink:href="#zoomPlus" x="17" y="9" onmousedown="handleZoom(evt,'in')"/>
  <use id="zoomminus" xlink:href="#zoomMin" x="42" y="9" onmousedown="handleZoom(evt,'out')"/>
  <use id="reset" xlink:href="#resetDef" x="30" y="36" onmousedown="handleReset()"/>
   <use id="arrowup" xlink:href="#arrowUp" x="0" y="0" onmousedown="handlePan(0,-1)"/>
  <use id="arrowright" xlink:href="#arrowRight" x="0" y="0" onmousedown="handlePan(1,0)"/>
  <use id="arrowdown" xlink:href="#arrowDown" x="0" y="0" onmousedown="handlePan(0,1)"/>
  <use id="arrowleft" xlink:href="#arrowLeft" x="0" y="0" onmousedown="handlePan(-1,0)"/>
</g>
<svg viewBox="0 0 15 15" width="100%" height="30px" preserveAspectRatio="xMaxYMin meet">
 <g id="arrow_out" transform="scale(0.3 0.3)">
  <a xlink:href="group__elements_afec94c65ee8ce53a60d63f082a032ca0_cgraph_org.svg" target="_base">
   <rect id="button" ry="5" rx="5" y="6" x="6" height="38" width="38"
        fill="#f2f5e9" fill-opacity="0.5" stroke="#606060" stroke-width="1.0"/>
   <path id="arrow"
     d="M 11.500037,31.436501 C 11.940474,20.09759 22.043105,11.32322 32.158766,21.979434 L 37.068811,17.246167 C 37.068811,17.246167 37.088388,32 37.088388,32 L 22.160133,31.978069 C 22.160133,31.978069 26.997745,27.140456 26.997745,27.140456 C 18.528582,18.264221 13.291696,25.230495 11.500037,31.436501 z"
     style="fill:#404040;"/>
  </a>
 </g>
</svg>

<style type='text/css'>
<![CDATA[
[data-mouse-over-selected='false'] { opacity: 0.7; }
[data-mouse-over-selected='true']  { opacity: 1.0; }
]]>
</style>
<script type="application/ecmascript"><![CDATA[
document.addEventListener('DOMContentLoaded', (event) => {
  highlightEdges();
  highlightAdjacentNodes();
});
]]></script>
</svg>
