<?xml version="1.0" encoding="UTF-8" standalone="no"?>
<!DOCTYPE svg PUBLIC "-//W3C//DTD SVG 1.1//EN"
 "http://www.w3.org/Graphics/SVG/1.1/DTD/svg11.dtd">
<!-- Generated by graphviz version 13.1.2 (20250808.2320)
 -->
<!-- Title: Graphical Class Hierarchy Pages: 1 -->
<svg width="358pt" height="128pt"
 viewBox="0.00 0.00 358.00 128.00" xmlns="http://www.w3.org/2000/svg" xmlns:xlink="http://www.w3.org/1999/xlink">
<g id="graph0" class="graph" transform="scale(1 1) rotate(0) translate(4 123.5)">
<title>Graphical Class Hierarchy</title>
<!-- Node0 -->
<g id="Node000000" class="node">
<title>Node0</title>
<g id="a_Node000000"><a xlink:title=" ">
<polygon fill="#e0e0e0" stroke="#999999" points="74.5,-68.62 0,-68.62 0,-50.88 74.5,-50.88 74.5,-68.62"/>
<text xml:space="preserve" text-anchor="middle" x="37.25" y="-57.02" font-family="SourceSans" font-size="8.00">std::exception</text>
</a>
</g>
</g>
<!-- Node1 -->
<g id="Node000001" class="node">
<title>Node1</title>
<g id="a_Node000001"><a xlink:title=" ">
<polygon fill="#e0e0e0" stroke="#999999" points="199.25,-68.62 110.5,-68.62 110.5,-50.88 199.25,-50.88 199.25,-68.62"/>
<text xml:space="preserve" text-anchor="middle" x="154.88" y="-57.02" font-family="SourceSans" font-size="8.00">std::runtime_error</text>
</a>
</g>
</g>
<!-- Node0&#45;&gt;Node1 -->
<g id="edge1_Node000000_Node000001" class="edge">
<title>Node0&#45;&gt;Node1</title>
<g id="a_edge1_Node000000_Node000001"><a xlink:title=" ">
<path fill="none" stroke="#63b8ff" d="M86.24,-59.75C94.19,-59.75 102.4,-59.75 110.24,-59.75"/>
<polygon fill="#63b8ff" stroke="#63b8ff" points="86.35,-56.25 76.35,-59.75 86.35,-63.25 86.35,-56.25"/>
</a>
</g>
</g>
<!-- Node2 -->
<g id="Node000002" class="node">
<title>Node2</title>
<g id="a_Node000002"><a xlink:href="classizzi_1_1guilloche_1_1resource__error.html" target="_top" xlink:title=" ">
<polygon fill="white" stroke="#666666" points="349.5,-119.5 235.25,-119.5 235.25,-92 349.5,-92 349.5,-119.5"/>
<text xml:space="preserve" text-anchor="start" x="243.25" y="-107.9" font-family="SourceSans" font-size="8.00">izzi::guilloche::resource</text>
<text xml:space="preserve" text-anchor="middle" x="292.38" y="-98.15" font-family="SourceSans" font-size="8.00">_error</text>
</a>
</g>
</g>
<!-- Node1&#45;&gt;Node2 -->
<g id="edge2_Node000001_Node000002" class="edge">
<title>Node1&#45;&gt;Node2</title>
<g id="a_edge2_Node000001_Node000002"><a xlink:title=" ">
<path fill="none" stroke="#63b8ff" d="M194.13,-72.74C211.42,-78.61 231.89,-85.55 249.57,-91.56"/>
<polygon fill="#63b8ff" stroke="#63b8ff" points="195.32,-69.45 184.73,-69.55 193.07,-76.07 195.32,-69.45"/>
</a>
</g>
</g>
<!-- Node3 -->
<g id="Node000003" class="node">
<title>Node3</title>
<g id="a_Node000003"><a xlink:href="classizzi_1_1moire_1_1resource__error.html" target="_top" xlink:title=" ">
<polygon fill="white" stroke="#666666" points="342,-73.5 242.75,-73.5 242.75,-46 342,-46 342,-73.5"/>
<text xml:space="preserve" text-anchor="start" x="250.75" y="-61.9" font-family="SourceSans" font-size="8.00">izzi::moire::resource</text>
<text xml:space="preserve" text-anchor="middle" x="292.38" y="-52.15" font-family="SourceSans" font-size="8.00">_error</text>
</a>
</g>
</g>
<!-- Node1&#45;&gt;Node3 -->
<g id="edge3_Node000001_Node000003" class="edge">
<title>Node1&#45;&gt;Node3</title>
<g id="a_edge3_Node000001_Node000003"><a xlink:title=" ">
<path fill="none" stroke="#63b8ff" d="M210.74,-59.75C221.31,-59.75 232.31,-59.75 242.67,-59.75"/>
<polygon fill="#63b8ff" stroke="#63b8ff" points="211.01,-56.25 201.01,-59.75 211.01,-63.25 211.01,-56.25"/>
</a>
</g>
</g>
<!-- Node4 -->
<g id="Node000004" class="node">
<title>Node4</title>
<g id="a_Node000004"><a xlink:href="classizzi_1_1surface__tension_1_1resource__error.html" target="_top" xlink:title=" ">
<polygon fill="white" stroke="#666666" points="342.75,-27.5 242,-27.5 242,0 342.75,0 342.75,-27.5"/>
<text xml:space="preserve" text-anchor="start" x="250" y="-15.9" font-family="SourceSans" font-size="8.00">izzi::surface_tension</text>
<text xml:space="preserve" text-anchor="middle" x="292.38" y="-6.15" font-family="SourceSans" font-size="8.00">::resource_error</text>
</a>
</g>
</g>
<!-- Node1&#45;&gt;Node4 -->
<g id="edge4_Node000001_Node000004" class="edge">
<title>Node1&#45;&gt;Node4</title>
<g id="a_edge4_Node000001_Node000004"><a xlink:title=" ">
<path fill="none" stroke="#63b8ff" d="M194.13,-46.76C211.42,-40.89 231.89,-33.95 249.57,-27.94"/>
<polygon fill="#63b8ff" stroke="#63b8ff" points="193.07,-43.43 184.73,-49.95 195.32,-50.05 193.07,-43.43"/>
</a>
</g>
</g>
</g>
</svg>
