<?xml version="1.0" encoding="UTF-8" standalone="no"?>
<!DOCTYPE svg PUBLIC "-//W3C//DTD SVG 1.1//EN"
 "http://www.w3.org/Graphics/SVG/1.1/DTD/svg11.dtd">
<!-- Generated by graphviz version 13.1.2 (20250808.2320)
 -->
<!-- Title: /home/bkoz/src/izzi/src/izzi&#45;svg&#45;color&#45;band.h Pages: 1 -->
<svg width="511pt" height="216pt"
 viewBox="0.00 0.00 511.00 216.00" xmlns="http://www.w3.org/2000/svg" xmlns:xlink="http://www.w3.org/1999/xlink">
<g id="graph0" class="graph" transform="scale(1 1) rotate(0) translate(4 212.25)">
<title>/home/bkoz/src/izzi/src/izzi&#45;svg&#45;color&#45;band.h</title>
<!-- Node1 -->
<g id="Node000001" class="node">
<title>Node1</title>
<g id="a_Node000001"><a xlink:title=" ">
<polygon fill="#999999" stroke="#666666" points="453.38,-208.25 357.88,-208.25 357.88,-171 453.38,-171 453.38,-208.25"/>
<text xml:space="preserve" text-anchor="start" x="365.88" y="-196.65" font-family="SourceSans" font-size="8.00">/home/bkoz/src/izzi</text>
<text xml:space="preserve" text-anchor="start" x="365.88" y="-186.9" font-family="SourceSans" font-size="8.00">/src/izzi&#45;svg&#45;color</text>
<text xml:space="preserve" text-anchor="middle" x="405.62" y="-177.15" font-family="SourceSans" font-size="8.00">&#45;band.h</text>
</a>
</g>
</g>
<!-- Node2 -->
<g id="Node000002" class="node">
<title>Node2</title>
<g id="a_Node000002"><a xlink:href="izzi-svg-color-palette_8h.html" target="_top" xlink:title=" ">
<polygon fill="white" stroke="#666666" points="361.5,-135 251.75,-135 251.75,-117.25 361.5,-117.25 361.5,-135"/>
<text xml:space="preserve" text-anchor="middle" x="306.62" y="-123.4" font-family="SourceSans" font-size="8.00">izzi&#45;svg&#45;color&#45;palette.h</text>
</a>
</g>
</g>
<!-- Node1&#45;&gt;Node2 -->
<g id="edge1_Node000001_Node000002" class="edge">
<title>Node1&#45;&gt;Node2</title>
<g id="a_edge1_Node000001_Node000002"><a xlink:title=" ">
<path fill="none" stroke="#63b8ff" d="M376.46,-170.51C361.55,-161.24 343.66,-150.13 329.73,-141.48"/>
<polygon fill="#63b8ff" stroke="#63b8ff" points="331.58,-138.51 321.24,-136.2 327.88,-144.45 331.58,-138.51"/>
</a>
</g>
</g>
<!-- Node12 -->
<g id="Node000012" class="node">
<title>Node12</title>
<g id="a_Node000012"><a xlink:title=" ">
<polygon fill="#e0e0e0" stroke="#999999" points="431.25,-135 380,-135 380,-117.25 431.25,-117.25 431.25,-135"/>
<text xml:space="preserve" text-anchor="middle" x="405.62" y="-123.4" font-family="SourceSans" font-size="8.00">iostream</text>
</a>
</g>
</g>
<!-- Node1&#45;&gt;Node12 -->
<g id="edge11_Node000001_Node000012" class="edge">
<title>Node1&#45;&gt;Node12</title>
<g id="a_edge11_Node000001_Node000012"><a xlink:title=" ">
<path fill="none" stroke="#63b8ff" d="M405.62,-170.51C405.62,-163.06 405.62,-154.42 405.62,-146.82"/>
<polygon fill="#63b8ff" stroke="#63b8ff" points="409.13,-146.92 405.63,-136.92 402.13,-146.92 409.13,-146.92"/>
</a>
</g>
</g>
<!-- Node13 -->
<g id="Node000013" class="node">
<title>Node13</title>
<g id="a_Node000013"><a xlink:title=" ">
<polygon fill="#e0e0e0" stroke="#999999" points="478.02,-135 449.23,-135 449.23,-117.25 478.02,-117.25 478.02,-135"/>
<text xml:space="preserve" text-anchor="middle" x="463.62" y="-123.4" font-family="SourceSans" font-size="8.00">set</text>
</a>
</g>
</g>
<!-- Node1&#45;&gt;Node13 -->
<g id="edge12_Node000001_Node000013" class="edge">
<title>Node1&#45;&gt;Node13</title>
<g id="a_edge12_Node000001_Node000013"><a xlink:title=" ">
<path fill="none" stroke="#63b8ff" d="M422.71,-170.51C430.76,-161.97 440.29,-151.87 448.13,-143.56"/>
<polygon fill="#63b8ff" stroke="#63b8ff" points="450.46,-146.18 454.78,-136.5 445.37,-141.38 450.46,-146.18"/>
</a>
</g>
</g>
<!-- Node3 -->
<g id="Node000003" class="node">
<title>Node3</title>
<g id="a_Node000003"><a xlink:href="izzi-svg-color_8h.html" target="_top" xlink:title=" ">
<polygon fill="white" stroke="#666666" points="287.38,-81.25 209.88,-81.25 209.88,-63.5 287.38,-63.5 287.38,-81.25"/>
<text xml:space="preserve" text-anchor="middle" x="248.62" y="-69.65" font-family="SourceSans" font-size="8.00">izzi&#45;svg&#45;color.h</text>
</a>
</g>
</g>
<!-- Node2&#45;&gt;Node3 -->
<g id="edge2_Node000002_Node000003" class="edge">
<title>Node2&#45;&gt;Node3</title>
<g id="a_edge2_Node000002_Node000003"><a xlink:title=" ">
<path fill="none" stroke="#63b8ff" d="M297.31,-116.81C288.97,-109.37 276.53,-98.27 266.31,-89.15"/>
<polygon fill="#63b8ff" stroke="#63b8ff" points="268.65,-86.55 258.86,-82.51 263.99,-91.78 268.65,-86.55"/>
</a>
</g>
</g>
<!-- Node11 -->
<g id="Node000011" class="node">
<title>Node11</title>
<g id="a_Node000011"><a xlink:title=" ">
<polygon fill="#e0e0e0" stroke="#999999" points="426.12,-81.25 305.12,-81.25 305.12,-63.5 426.12,-63.5 426.12,-81.25"/>
<text xml:space="preserve" text-anchor="middle" x="365.62" y="-69.65" font-family="SourceSans" font-size="8.00">izzi&#45;svg&#45;color&#45;palettes.inc</text>
</a>
</g>
</g>
<!-- Node2&#45;&gt;Node11 -->
<g id="edge10_Node000002_Node000011" class="edge">
<title>Node2&#45;&gt;Node11</title>
<g id="a_edge10_Node000002_Node000011"><a xlink:title=" ">
<path fill="none" stroke="#63b8ff" d="M316.1,-116.81C324.67,-109.3 337.5,-98.04 347.95,-88.87"/>
<polygon fill="#63b8ff" stroke="#63b8ff" points="350.02,-91.72 355.23,-82.5 345.4,-86.46 350.02,-91.72"/>
</a>
</g>
</g>
<!-- Node4 -->
<g id="Node000004" class="node">
<title>Node4</title>
<g id="a_Node000004"><a xlink:title=" ">
<polygon fill="#e0e0e0" stroke="#999999" points="81.25,-22.62 0,-22.62 0,-4.88 81.25,-4.88 81.25,-22.62"/>
<text xml:space="preserve" text-anchor="middle" x="40.62" y="-11.03" font-family="SourceSans" font-size="8.00">izzi&#45;svg&#45;core.inc</text>
</a>
</g>
</g>
<!-- Node3&#45;&gt;Node4 -->
<g id="edge3_Node000003_Node000004" class="edge">
<title>Node3&#45;&gt;Node4</title>
<g id="a_edge3_Node000003_Node000004"><a xlink:title=" ">
<path fill="none" stroke="#63b8ff" d="M217.93,-63.02C181.96,-53.23 122.18,-36.95 82.1,-26.04"/>
<polygon fill="#63b8ff" stroke="#63b8ff" points="83.13,-22.69 72.56,-23.44 81.29,-29.45 83.13,-22.69"/>
</a>
</g>
</g>
<!-- Node5 -->
<g id="Node000005" class="node">
<title>Node5</title>
<g id="a_Node000005"><a xlink:title=" ">
<polygon fill="#e0e0e0" stroke="#999999" points="133.62,-22.62 99.62,-22.62 99.62,-4.88 133.62,-4.88 133.62,-22.62"/>
<text xml:space="preserve" text-anchor="middle" x="116.62" y="-11.03" font-family="SourceSans" font-size="8.00">map</text>
</a>
</g>
</g>
<!-- Node3&#45;&gt;Node5 -->
<g id="edge4_Node000003_Node000005" class="edge">
<title>Node3&#45;&gt;Node5</title>
<g id="a_edge4_Node000003_Node000005"><a xlink:title=" ">
<path fill="none" stroke="#63b8ff" d="M227.34,-63.03C207.75,-55.24 177.7,-43.06 143.35,-27.66"/>
<polygon fill="#63b8ff" stroke="#63b8ff" points="144.99,-24.56 134.43,-23.63 142.1,-30.94 144.99,-24.56"/>
</a>
</g>
</g>
<!-- Node6 -->
<g id="Node000006" class="node">
<title>Node6</title>
<g id="a_Node000006"><a xlink:title=" ">
<polygon fill="#e0e0e0" stroke="#999999" points="207.12,-22.62 152.12,-22.62 152.12,-4.88 207.12,-4.88 207.12,-22.62"/>
<text xml:space="preserve" text-anchor="middle" x="179.62" y="-11.03" font-family="SourceSans" font-size="8.00">algorithm</text>
</a>
</g>
</g>
<!-- Node3&#45;&gt;Node6 -->
<g id="edge5_Node000003_Node000006" class="edge">
<title>Node3&#45;&gt;Node6</title>
<g id="a_edge5_Node000003_Node000006"><a xlink:title=" ">
<path fill="none" stroke="#63b8ff" d="M238.44,-63.02C227.83,-54.31 210.95,-40.46 198,-29.83"/>
<polygon fill="#63b8ff" stroke="#63b8ff" points="200.52,-27.37 190.57,-23.73 196.08,-32.78 200.52,-27.37"/>
</a>
</g>
</g>
<!-- Node7 -->
<g id="Node000007" class="node">
<title>Node7</title>
<g id="a_Node000007"><a xlink:title=" ">
<polygon fill="#e0e0e0" stroke="#999999" points="272.38,-22.62 224.88,-22.62 224.88,-4.88 272.38,-4.88 272.38,-22.62"/>
<text xml:space="preserve" text-anchor="middle" x="248.62" y="-11.03" font-family="SourceSans" font-size="8.00">random</text>
</a>
</g>
</g>
<!-- Node3&#45;&gt;Node7 -->
<g id="edge6_Node000003_Node000007" class="edge">
<title>Node3&#45;&gt;Node7</title>
<g id="a_edge6_Node000003_Node000007"><a xlink:title=" ">
<path fill="none" stroke="#63b8ff" d="M248.62,-63.02C248.62,-55.41 248.62,-43.87 248.62,-33.99"/>
<polygon fill="#63b8ff" stroke="#63b8ff" points="252.13,-34.29 248.63,-24.29 245.13,-34.29 252.13,-34.29"/>
</a>
</g>
</g>
<!-- Node8 -->
<g id="Node000008" class="node">
<title>Node8</title>
<g id="a_Node000008"><a xlink:title=" ">
<polygon fill="#e0e0e0" stroke="#999999" points="339.12,-22.62 290.12,-22.62 290.12,-4.88 339.12,-4.88 339.12,-22.62"/>
<text xml:space="preserve" text-anchor="middle" x="314.62" y="-11.03" font-family="SourceSans" font-size="8.00">iomanip</text>
</a>
</g>
</g>
<!-- Node3&#45;&gt;Node8 -->
<g id="edge7_Node000003_Node000008" class="edge">
<title>Node3&#45;&gt;Node8</title>
<g id="a_edge7_Node000003_Node000008"><a xlink:title=" ">
<path fill="none" stroke="#63b8ff" d="M258.36,-63.02C268.42,-54.39 284.35,-40.73 296.69,-30.14"/>
<polygon fill="#63b8ff" stroke="#63b8ff" points="298.81,-32.93 304.13,-23.76 294.26,-27.61 298.81,-32.93"/>
</a>
</g>
</g>
<!-- Node9 -->
<g id="Node000009" class="node">
<title>Node9</title>
<g id="a_Node000009"><a xlink:title=" ">
<polygon fill="#e0e0e0" stroke="#999999" points="398.38,-22.62 356.88,-22.62 356.88,-4.88 398.38,-4.88 398.38,-22.62"/>
<text xml:space="preserve" text-anchor="middle" x="377.62" y="-11.03" font-family="SourceSans" font-size="8.00">cmath</text>
</a>
</g>
</g>
<!-- Node3&#45;&gt;Node9 -->
<g id="edge8_Node000003_Node000009" class="edge">
<title>Node3&#45;&gt;Node9</title>
<g id="a_edge8_Node000003_Node000009"><a xlink:title=" ">
<path fill="none" stroke="#63b8ff" d="M267.43,-63.13C285.72,-55.11 314.54,-42.47 348.42,-27.59"/>
<polygon fill="#63b8ff" stroke="#63b8ff" points="349.46,-30.95 357.21,-23.73 346.65,-24.54 349.46,-30.95"/>
</a>
</g>
</g>
<!-- Node10 -->
<g id="Node000010" class="node">
<title>Node10</title>
<g id="a_Node000010"><a xlink:title=" ">
<polygon fill="#e0e0e0" stroke="#999999" points="502.88,-27.5 416.38,-27.5 416.38,0 502.88,0 502.88,-27.5"/>
<text xml:space="preserve" text-anchor="start" x="424.38" y="-15.9" font-family="SourceSans" font-size="8.00">izzi&#45;svg&#45;color&#45;rgb</text>
<text xml:space="preserve" text-anchor="middle" x="459.62" y="-6.15" font-family="SourceSans" font-size="8.00">&#45;map.inc</text>
</a>
</g>
</g>
<!-- Node3&#45;&gt;Node10 -->
<g id="edge9_Node000003_Node000010" class="edge">
<title>Node3&#45;&gt;Node10</title>
<g id="a_edge9_Node000003_Node000010"><a xlink:title=" ">
<path fill="none" stroke="#63b8ff" d="M279.76,-63.02C312.66,-54.19 365.2,-40.09 405.02,-29.41"/>
<polygon fill="#63b8ff" stroke="#63b8ff" points="405.67,-32.85 414.42,-26.88 403.85,-26.09 405.67,-32.85"/>
</a>
</g>
</g>
</g>
</svg>
