<?xml version="1.0" encoding="UTF-8" standalone="no"?>
<!DOCTYPE svg PUBLIC "-//W3C//DTD SVG 1.1//EN"
 "http://www.w3.org/Graphics/SVG/1.1/DTD/svg11.dtd">
<!-- Generated by graphviz version 13.1.2 (20250808.2320)
 -->
<!-- Title: /home/bkoz/src/izzi/src/izzi&#45;svg&#45;graph.h Pages: 1 -->
<!--zoomable 89 -->

<svg id="main" version="1.1" xmlns="http://www.w3.org/2000/svg" xmlns:xlink="http://www.w3.org/1999/xlink" xml:space="preserve" onload="init(evt)">

<style type="text/css"><![CDATA[
.node, .edge {opacity: 0.7;}
.node.selected, .edge.selected {opacity: 1;}
.edge:hover path { stroke: red; }
.edge:hover polygon { stroke: red; fill: red; }
]]></style>

<defs>
  <circle id="rim" cx="0" cy="0" r="7"/>
  <circle id="rim2" cx="0" cy="0" r="3.5"/>
  <g id="zoomPlus">
    <use xlink:href="#rim" fill="#404040"><set attributeName="fill" to="#808080" begin="zoomplus.mouseover" end="zoomplus.mouseout"/></use>
    <path d="M-4,0h8M0,-4v8" fill="none" stroke="white" stroke-width="1.5" pointer-events="none"/>
  </g>
  <g id="zoomMin">
    <use xlink:href="#rim" fill="#404040"><set attributeName="fill" to="#808080" begin="zoomminus.mouseover" end="zoomminus.mouseout"/></use>
    <path d="M-4,0h8" fill="none" stroke="white" stroke-width="1.5" pointer-events="none"/>
  </g>
  <g id="arrowUp" transform="translate(30 24)">
    <use xlink:href="#rim"/>
    <path pointer-events="none" fill="none" stroke="white" stroke-width="1.5" d="M0,-3.0v7 M-2.5,-0.5L0,-3.0L2.5,-0.5"/>
  </g>
  <g id="arrowRight" transform="rotate(90) translate(36 -43)">
    <use xlink:href="#rim"/>
    <path pointer-events="none" fill="none" stroke="white" stroke-width="1.5" d="M0,-3.0v7 M-2.5,-0.5L0,-3.0L2.5,-0.5"/>
  </g>
  <g id="arrowDown" transform="rotate(180) translate(-30 -48)">
    <use xlink:href="#rim"/>
    <path pointer-events="none" fill="none" stroke="white" stroke-width="1.5" d="M0,-3.0v7 M-2.5,-0.5L0,-3.0L2.5,-0.5"/>
  </g>
  <g id="arrowLeft" transform="rotate(270) translate(-36 17)">
    <use xlink:href="#rim"/>
    <path pointer-events="none" fill="none" stroke="white" stroke-width="1.5" d="M0,-3.0v7 M-2.5,-0.5L0,-3.0L2.5,-0.5"/>
  </g>
  <g id="resetDef">
    <use xlink:href="#rim2" fill="#404040"><set attributeName="fill" to="#808080" begin="reset.mouseover" end="reset.mouseout"/></use>
  </g>
</defs>
<script type="application/ecmascript">
var viewWidth = 886;
var viewHeight = 89;
var sectionId = 'dynsection-0';
</script>
<script type="application/ecmascript" xlink:href="svg.min.js"/>
<svg id="graph" class="graph">
<g id="viewport">
<title>/home/bkoz/src/izzi/src/izzi&#45;svg&#45;graph.h</title>
<!-- Node1 -->
<g id="Node000001" class="node">
<title>Node1</title>
<g id="a_Node000001"><a xlink:title=" ">
<polygon fill="#999999" stroke="#666666" points="458.12,-81.25 358.88,-81.25 358.88,-53.75 458.12,-53.75 458.12,-81.25"/>
<text xml:space="preserve" text-anchor="start" x="366.88" y="-69.65" font-family="SourceSans" font-size="8.00">/home/bkoz/src/izzi</text>
<text xml:space="preserve" text-anchor="middle" x="408.5" y="-59.9" font-family="SourceSans" font-size="8.00">/src/izzi&#45;svg&#45;graph.h</text>
</a>
</g>
</g>
<!-- Node2 -->
<g id="Node000002" class="node">
<title>Node2</title>
<g id="a_Node000002"><a xlink:title=" ">
<polygon fill="#e0e0e0" stroke="#999999" points="55,-17.75 0,-17.75 0,0 55,0 55,-17.75"/>
<text xml:space="preserve" text-anchor="middle" x="27.5" y="-6.15" font-family="SourceSans" font-size="8.00">algorithm</text>
</a>
</g>
</g>
<!-- Node1&#45;&gt;Node2 -->
<g id="edge1_Node000001_Node000002" class="edge">
<title>Node1&#45;&gt;Node2</title>
<g id="a_edge1_Node000001_Node000002"><a xlink:title=" ">
<path fill="none" stroke="#63b8ff" d="M358.61,-60.64C293.59,-52.75 176.12,-37.58 66.62,-18.2"/>
<polygon fill="#63b8ff" stroke="#63b8ff" points="67.32,-14.77 56.86,-16.45 66.08,-21.66 67.32,-14.77"/>
</a>
</g>
</g>
<!-- Node3 -->
<g id="Node000003" class="node">
<title>Node3</title>
<g id="a_Node000003"><a xlink:title=" ">
<polygon fill="#e0e0e0" stroke="#999999" points="114.25,-17.75 72.75,-17.75 72.75,0 114.25,0 114.25,-17.75"/>
<text xml:space="preserve" text-anchor="middle" x="93.5" y="-6.15" font-family="SourceSans" font-size="8.00">cmath</text>
</a>
</g>
</g>
<!-- Node1&#45;&gt;Node3 -->
<g id="edge2_Node000001_Node000003" class="edge">
<title>Node1&#45;&gt;Node3</title>
<g id="a_edge2_Node000001_Node000003"><a xlink:title=" ">
<path fill="none" stroke="#63b8ff" d="M358.56,-59.31C303.81,-51.12 213.13,-36.7 125.63,-18.03"/>
<polygon fill="#63b8ff" stroke="#63b8ff" points="126.42,-14.62 115.9,-15.94 124.94,-21.47 126.42,-14.62"/>
</a>
</g>
</g>
<!-- Node4 -->
<g id="Node000004" class="node">
<title>Node4</title>
<g id="a_Node000004"><a xlink:title=" ">
<polygon fill="#e0e0e0" stroke="#999999" points="178.88,-17.75 132.12,-17.75 132.12,0 178.88,0 178.88,-17.75"/>
<text xml:space="preserve" text-anchor="middle" x="155.5" y="-6.15" font-family="SourceSans" font-size="8.00">cstddef</text>
</a>
</g>
</g>
<!-- Node1&#45;&gt;Node4 -->
<g id="edge3_Node000001_Node000004" class="edge">
<title>Node1&#45;&gt;Node4</title>
<g id="a_edge3_Node000001_Node000004"><a xlink:title=" ">
<path fill="none" stroke="#63b8ff" d="M358.39,-55.81C316,-46.68 253.36,-33.01 190.21,-18.34"/>
<polygon fill="#63b8ff" stroke="#63b8ff" points="191.26,-14.99 180.72,-16.13 189.67,-21.81 191.26,-14.99"/>
</a>
</g>
</g>
<!-- Node5 -->
<g id="Node000005" class="node">
<title>Node5</title>
<g id="a_Node000005"><a xlink:title=" ">
<polygon fill="#e0e0e0" stroke="#999999" points="248.5,-17.75 196.5,-17.75 196.5,0 248.5,0 248.5,-17.75"/>
<text xml:space="preserve" text-anchor="middle" x="222.5" y="-6.15" font-family="SourceSans" font-size="8.00">numbers</text>
</a>
</g>
</g>
<!-- Node1&#45;&gt;Node5 -->
<g id="edge4_Node000001_Node000005" class="edge">
<title>Node1&#45;&gt;Node5</title>
<g id="a_edge4_Node000001_Node000005"><a xlink:title=" ">
<path fill="none" stroke="#63b8ff" d="M365.36,-53.37C333.39,-43.63 290.25,-30.5 259.77,-21.22"/>
<polygon fill="#63b8ff" stroke="#63b8ff" points="260.79,-17.87 250.2,-18.31 258.75,-24.57 260.79,-17.87"/>
</a>
</g>
</g>
<!-- Node6 -->
<g id="Node000006" class="node">
<title>Node6</title>
<g id="a_Node000006"><a xlink:title=" ">
<polygon fill="#e0e0e0" stroke="#999999" points="316.38,-17.75 266.62,-17.75 266.62,0 316.38,0 316.38,-17.75"/>
<text xml:space="preserve" text-anchor="middle" x="291.5" y="-6.15" font-family="SourceSans" font-size="8.00">optional</text>
</a>
</g>
</g>
<!-- Node1&#45;&gt;Node6 -->
<g id="edge5_Node000001_Node000006" class="edge">
<title>Node1&#45;&gt;Node6</title>
<g id="a_edge5_Node000001_Node000006"><a xlink:title=" ">
<path fill="none" stroke="#63b8ff" d="M381.36,-53.37C362.63,-44.3 337.8,-32.28 318.99,-23.18"/>
<polygon fill="#63b8ff" stroke="#63b8ff" points="320.59,-20.07 310.06,-18.86 317.54,-26.37 320.59,-20.07"/>
</a>
</g>
</g>
<!-- Node7 -->
<g id="Node000007" class="node">
<title>Node7</title>
<g id="a_Node000007"><a xlink:title=" ">
<polygon fill="#e0e0e0" stroke="#999999" points="370.62,-17.75 334.38,-17.75 334.38,0 370.62,0 370.62,-17.75"/>
<text xml:space="preserve" text-anchor="middle" x="352.5" y="-6.15" font-family="SourceSans" font-size="8.00">span</text>
</a>
</g>
</g>
<!-- Node1&#45;&gt;Node7 -->
<g id="edge6_Node000001_Node000007" class="edge">
<title>Node1&#45;&gt;Node7</title>
<g id="a_edge6_Node000001_Node000007"><a xlink:title=" ">
<path fill="none" stroke="#63b8ff" d="M395.51,-53.37C387.55,-45.32 377.29,-34.94 368.79,-26.34"/>
<polygon fill="#63b8ff" stroke="#63b8ff" points="371.32,-23.93 361.8,-19.28 366.34,-28.85 371.32,-23.93"/>
</a>
</g>
</g>
<!-- Node8 -->
<g id="Node000008" class="node">
<title>Node8</title>
<g id="a_Node000008"><a xlink:title=" ">
<polygon fill="#e0e0e0" stroke="#999999" points="428.12,-17.75 388.88,-17.75 388.88,0 428.12,0 428.12,-17.75"/>
<text xml:space="preserve" text-anchor="middle" x="408.5" y="-6.15" font-family="SourceSans" font-size="8.00">string</text>
</a>
</g>
</g>
<!-- Node1&#45;&gt;Node8 -->
<g id="edge7_Node000001_Node000008" class="edge">
<title>Node1&#45;&gt;Node8</title>
<g id="a_edge7_Node000001_Node000008"><a xlink:title=" ">
<path fill="none" stroke="#63b8ff" d="M408.5,-53.37C408.5,-46.33 408.5,-37.53 408.5,-29.68"/>
<polygon fill="#63b8ff" stroke="#63b8ff" points="412,-29.71 408.5,-19.71 405,-29.71 412,-29.71"/>
</a>
</g>
</g>
<!-- Node9 -->
<g id="Node000009" class="node">
<title>Node9</title>
<g id="a_Node000009"><a xlink:title=" ">
<polygon fill="#e0e0e0" stroke="#999999" points="508.38,-17.75 446.62,-17.75 446.62,0 508.38,0 508.38,-17.75"/>
<text xml:space="preserve" text-anchor="middle" x="477.5" y="-6.15" font-family="SourceSans" font-size="8.00">string_view</text>
</a>
</g>
</g>
<!-- Node1&#45;&gt;Node9 -->
<g id="edge8_Node000001_Node000009" class="edge">
<title>Node1&#45;&gt;Node9</title>
<g id="a_edge8_Node000001_Node000009"><a xlink:title=" ">
<path fill="none" stroke="#63b8ff" d="M424.5,-53.37C434.73,-44.98 448.03,-34.06 458.74,-25.27"/>
<polygon fill="#63b8ff" stroke="#63b8ff" points="460.68,-28.21 466.19,-19.16 456.24,-22.8 460.68,-28.21"/>
</a>
</g>
</g>
<!-- Node10 -->
<g id="Node000010" class="node">
<title>Node10</title>
<g id="a_Node000010"><a xlink:title=" ">
<polygon fill="#e0e0e0" stroke="#999999" points="606.38,-17.75 526.62,-17.75 526.62,0 606.38,0 606.38,-17.75"/>
<text xml:space="preserve" text-anchor="middle" x="566.5" y="-6.15" font-family="SourceSans" font-size="8.00">unordered_map</text>
</a>
</g>
</g>
<!-- Node1&#45;&gt;Node10 -->
<g id="edge9_Node000001_Node000010" class="edge">
<title>Node1&#45;&gt;Node10</title>
<g id="a_edge9_Node000001_Node000010"><a xlink:title=" ">
<path fill="none" stroke="#63b8ff" d="M445.15,-53.37C471.51,-43.92 506.81,-31.27 532.54,-22.05"/>
<polygon fill="#63b8ff" stroke="#63b8ff" points="533.61,-25.38 541.85,-18.71 531.25,-18.79 533.61,-25.38"/>
</a>
</g>
</g>
<!-- Node11 -->
<g id="Node000011" class="node">
<title>Node11</title>
<g id="a_Node000011"><a xlink:title=" ">
<polygon fill="#e0e0e0" stroke="#999999" points="698.75,-17.75 624.25,-17.75 624.25,0 698.75,0 698.75,-17.75"/>
<text xml:space="preserve" text-anchor="middle" x="661.5" y="-6.15" font-family="SourceSans" font-size="8.00">unordered_set</text>
</a>
</g>
</g>
<!-- Node1&#45;&gt;Node11 -->
<g id="edge10_Node000001_Node000011" class="edge">
<title>Node1&#45;&gt;Node11</title>
<g id="a_edge10_Node000001_Node000011"><a xlink:title=" ">
<path fill="none" stroke="#63b8ff" d="M458.48,-55.31C503.39,-45.26 568.91,-30.6 613.27,-20.67"/>
<polygon fill="#63b8ff" stroke="#63b8ff" points="613.88,-24.12 622.87,-18.52 612.35,-17.29 613.88,-24.12"/>
</a>
</g>
</g>
<!-- Node12 -->
<g id="Node000012" class="node">
<title>Node12</title>
<g id="a_Node000012"><a xlink:title=" ">
<polygon fill="#e0e0e0" stroke="#999999" points="755.75,-17.75 717.25,-17.75 717.25,0 755.75,0 755.75,-17.75"/>
<text xml:space="preserve" text-anchor="middle" x="736.5" y="-6.15" font-family="SourceSans" font-size="8.00">utility</text>
</a>
</g>
</g>
<!-- Node1&#45;&gt;Node12 -->
<g id="edge11_Node000001_Node000012" class="edge">
<title>Node1&#45;&gt;Node12</title>
<g id="a_edge11_Node000001_Node000012"><a xlink:title=" ">
<path fill="none" stroke="#63b8ff" d="M458.53,-59.96C515.88,-52.1 612.89,-37.72 705.89,-17.87"/>
<polygon fill="#63b8ff" stroke="#63b8ff" points="706.4,-21.34 715.43,-15.81 704.92,-14.5 706.4,-21.34"/>
</a>
</g>
</g>
<!-- Node13 -->
<g id="Node000013" class="node">
<title>Node13</title>
<g id="a_Node000013"><a xlink:title=" ">
<polygon fill="#e0e0e0" stroke="#999999" points="818.75,-17.75 774.25,-17.75 774.25,0 818.75,0 818.75,-17.75"/>
<text xml:space="preserve" text-anchor="middle" x="796.5" y="-6.15" font-family="SourceSans" font-size="8.00">variant</text>
</a>
</g>
</g>
<!-- Node1&#45;&gt;Node13 -->
<g id="edge12_Node000001_Node000013" class="edge">
<title>Node1&#45;&gt;Node13</title>
<g id="a_edge12_Node000001_Node000013"><a xlink:title=" ">
<path fill="none" stroke="#63b8ff" d="M458.59,-61.32C525.58,-54.03 648.23,-39.38 762.78,-17.87"/>
<polygon fill="#63b8ff" stroke="#63b8ff" points="763.18,-21.35 772.35,-16.05 761.87,-14.48 763.18,-21.35"/>
</a>
</g>
</g>
<!-- Node14 -->
<g id="Node000014" class="node">
<title>Node14</title>
<g id="a_Node000014"><a xlink:title=" ">
<polygon fill="#e0e0e0" stroke="#999999" points="878.25,-17.75 836.75,-17.75 836.75,0 878.25,0 878.25,-17.75"/>
<text xml:space="preserve" text-anchor="middle" x="857.5" y="-6.15" font-family="SourceSans" font-size="8.00">vector</text>
</a>
</g>
</g>
<!-- Node1&#45;&gt;Node14 -->
<g id="edge13_Node000001_Node000014" class="edge">
<title>Node1&#45;&gt;Node14</title>
<g id="a_edge13_Node000001_Node000014"><a xlink:title=" ">
<path fill="none" stroke="#63b8ff" d="M458.51,-62.97C535.34,-57.05 687.16,-43.38 825.1,-17.93"/>
<polygon fill="#63b8ff" stroke="#63b8ff" points="825.61,-21.4 834.79,-16.12 824.32,-14.52 825.61,-21.4"/>
</a>
</g>
</g>
</g>
</svg>

<g id="navigator" transform="translate(0 0)" fill="#404254">
  <rect fill="#f2f5e9" fill-opacity="0.5" stroke="#606060" stroke-width=".5" x="0" y="0" width="60" height="60"/>
  <use id="zoomplus" xlink:href="#zoomPlus" x="17" y="9" onmousedown="handleZoom(evt,'in')"/>
  <use id="zoomminus" xlink:href="#zoomMin" x="42" y="9" onmousedown="handleZoom(evt,'out')"/>
  <use id="reset" xlink:href="#resetDef" x="30" y="36" onmousedown="handleReset()"/>
   <use id="arrowup" xlink:href="#arrowUp" x="0" y="0" onmousedown="handlePan(0,-1)"/>
  <use id="arrowright" xlink:href="#arrowRight" x="0" y="0" onmousedown="handlePan(1,0)"/>
  <use id="arrowdown" xlink:href="#arrowDown" x="0" y="0" onmousedown="handlePan(0,1)"/>
  <use id="arrowleft" xlink:href="#arrowLeft" x="0" y="0" onmousedown="handlePan(-1,0)"/>
</g>
<svg viewBox="0 0 15 15" width="100%" height="30px" preserveAspectRatio="xMaxYMin meet">
 <g id="arrow_out" transform="scale(0.3 0.3)">
  <a xlink:href="izzi-svg-graph_8h__incl_org.svg" target="_base">
   <rect id="button" ry="5" rx="5" y="6" x="6" height="38" width="38"
        fill="#f2f5e9" fill-opacity="0.5" stroke="#606060" stroke-width="1.0"/>
   <path id="arrow"
     d="M 11.500037,31.436501 C 11.940474,20.09759 22.043105,11.32322 32.158766,21.979434 L 37.068811,17.246167 C 37.068811,17.246167 37.088388,32 37.088388,32 L 22.160133,31.978069 C 22.160133,31.978069 26.997745,27.140456 26.997745,27.140456 C 18.528582,18.264221 13.291696,25.230495 11.500037,31.436501 z"
     style="fill:#404040;"/>
  </a>
 </g>
</svg>

<style type='text/css'>
<![CDATA[
[data-mouse-over-selected='false'] { opacity: 0.7; }
[data-mouse-over-selected='true']  { opacity: 1.0; }
]]>
</style>
<script type="application/ecmascript"><![CDATA[
document.addEventListener('DOMContentLoaded', (event) => {
  highlightEdges();
  highlightAdjacentNodes();
});
]]></script>
</svg>
