<?xml version="1.0" encoding="UTF-8" standalone="no"?>
<!DOCTYPE svg PUBLIC "-//W3C//DTD SVG 1.1//EN"
 "http://www.w3.org/Graphics/SVG/1.1/DTD/svg11.dtd">
<!-- Generated by graphviz version 13.1.2 (20250808.2320)
 -->
<!-- Title: izzi::graph::detail::render_svg Pages: 1 -->
<!--zoomable 244 -->

<svg id="main" version="1.1" xmlns="http://www.w3.org/2000/svg" xmlns:xlink="http://www.w3.org/1999/xlink" xml:space="preserve" onload="init(evt)">

<style type="text/css"><![CDATA[
.node, .edge {opacity: 0.7;}
.node.selected, .edge.selected {opacity: 1;}
.edge:hover path { stroke: red; }
.edge:hover polygon { stroke: red; fill: red; }
]]></style>

<defs>
  <circle id="rim" cx="0" cy="0" r="7"/>
  <circle id="rim2" cx="0" cy="0" r="3.5"/>
  <g id="zoomPlus">
    <use xlink:href="#rim" fill="#404040"><set attributeName="fill" to="#808080" begin="zoomplus.mouseover" end="zoomplus.mouseout"/></use>
    <path d="M-4,0h8M0,-4v8" fill="none" stroke="white" stroke-width="1.5" pointer-events="none"/>
  </g>
  <g id="zoomMin">
    <use xlink:href="#rim" fill="#404040"><set attributeName="fill" to="#808080" begin="zoomminus.mouseover" end="zoomminus.mouseout"/></use>
    <path d="M-4,0h8" fill="none" stroke="white" stroke-width="1.5" pointer-events="none"/>
  </g>
  <g id="arrowUp" transform="translate(30 24)">
    <use xlink:href="#rim"/>
    <path pointer-events="none" fill="none" stroke="white" stroke-width="1.5" d="M0,-3.0v7 M-2.5,-0.5L0,-3.0L2.5,-0.5"/>
  </g>
  <g id="arrowRight" transform="rotate(90) translate(36 -43)">
    <use xlink:href="#rim"/>
    <path pointer-events="none" fill="none" stroke="white" stroke-width="1.5" d="M0,-3.0v7 M-2.5,-0.5L0,-3.0L2.5,-0.5"/>
  </g>
  <g id="arrowDown" transform="rotate(180) translate(-30 -48)">
    <use xlink:href="#rim"/>
    <path pointer-events="none" fill="none" stroke="white" stroke-width="1.5" d="M0,-3.0v7 M-2.5,-0.5L0,-3.0L2.5,-0.5"/>
  </g>
  <g id="arrowLeft" transform="rotate(270) translate(-36 17)">
    <use xlink:href="#rim"/>
    <path pointer-events="none" fill="none" stroke="white" stroke-width="1.5" d="M0,-3.0v7 M-2.5,-0.5L0,-3.0L2.5,-0.5"/>
  </g>
  <g id="resetDef">
    <use xlink:href="#rim2" fill="#404040"><set attributeName="fill" to="#808080" begin="reset.mouseover" end="reset.mouseout"/></use>
  </g>
</defs>
<script type="application/ecmascript">
var viewWidth = 512;
var viewHeight = 244;
var sectionId = 'dynsection-5';
</script>
<script type="application/ecmascript" xlink:href="svg.min.js"/>
<svg id="graph" class="graph">
<g id="viewport">
<title>izzi::graph::detail::render_svg</title>
<!-- Node1 -->
<g id="Node000001" class="node">
<title>Node1</title>
<g id="a_Node000001"><a xlink:title=" ">
<polygon fill="#999999" stroke="#666666" points="88.75,-140.5 0,-140.5 0,-113 88.75,-113 88.75,-140.5"/>
<text xml:space="preserve" text-anchor="start" x="8" y="-128.9" font-family="SourceSans" font-size="8.00">izzi::graph::detail</text>
<text xml:space="preserve" text-anchor="middle" x="44.38" y="-119.15" font-family="SourceSans" font-size="8.00">::render_svg</text>
</a>
</g>
</g>
<!-- Node2 -->
<g id="Node000002" class="node">
<title>Node2</title>
<g id="a_Node000002"><a xlink:href="namespaceizzi_1_1graph_1_1detail.html#ad289a1a1270b9d1407965cea7769e7ab" target="_top" xlink:title=" ">
<polygon fill="white" stroke="#666666" points="220.25,-203.5 131.5,-203.5 131.5,-176 220.25,-176 220.25,-203.5"/>
<text xml:space="preserve" text-anchor="start" x="139.5" y="-191.9" font-family="SourceSans" font-size="8.00">izzi::graph::detail</text>
<text xml:space="preserve" text-anchor="middle" x="175.88" y="-182.15" font-family="SourceSans" font-size="8.00">::append_shape</text>
</a>
</g>
</g>
<!-- Node1&#45;&gt;Node2 -->
<g id="edge1_Node000001_Node000002" class="edge">
<title>Node1&#45;&gt;Node2</title>
<g id="a_edge1_Node000001_Node000002"><a xlink:title=" ">
<path fill="none" stroke="#63b8ff" d="M74.44,-140.89C92.52,-149.68 115.99,-161.1 135.7,-170.69"/>
<polygon fill="#63b8ff" stroke="#63b8ff" points="134.03,-173.77 144.55,-175 137.09,-167.47 134.03,-173.77"/>
</a>
</g>
</g>
<!-- Node3 -->
<g id="Node000003" class="node">
<title>Node3</title>
<g id="a_Node000003"><a xlink:href="namespaceizzi_1_1graph_1_1detail.html#aef5eb94fb205214f6d9442013bc91778" target="_top" xlink:title=" ">
<polygon fill="white" stroke="#666666" points="358.5,-235.5 269.75,-235.5 269.75,-208 358.5,-208 358.5,-235.5"/>
<text xml:space="preserve" text-anchor="start" x="277.75" y="-223.9" font-family="SourceSans" font-size="8.00">izzi::graph::detail</text>
<text xml:space="preserve" text-anchor="middle" x="314.12" y="-214.15" font-family="SourceSans" font-size="8.00">::escape</text>
</a>
</g>
</g>
<!-- Node1&#45;&gt;Node3 -->
<g id="edge6_Node000001_Node000003" class="edge">
<title>Node1&#45;&gt;Node3</title>
<g id="a_edge6_Node000001_Node000003"><a xlink:title=" ">
<path fill="none" stroke="#63b8ff" d="M53.45,-140.9C65.83,-161.05 91.61,-197.29 124.75,-212.75 166.38,-232.18 218.97,-233.01 257.99,-229.8"/>
<polygon fill="#63b8ff" stroke="#63b8ff" points="258.26,-233.29 267.88,-228.86 257.59,-226.32 258.26,-233.29"/>
</a>
</g>
</g>
<!-- Node5 -->
<g id="Node000005" class="node">
<title>Node5</title>
<g id="a_Node000005"><a xlink:href="namespaceizzi_1_1graph_1_1detail.html#aafd432d9e5f06f656d61daa0f25f9a39" target="_top" xlink:title=" ">
<polygon fill="white" stroke="#666666" points="358.5,-170.5 269.75,-170.5 269.75,-143 358.5,-143 358.5,-170.5"/>
<text xml:space="preserve" text-anchor="start" x="277.75" y="-158.9" font-family="SourceSans" font-size="8.00">izzi::graph::detail</text>
<text xml:space="preserve" text-anchor="middle" x="314.12" y="-149.15" font-family="SourceSans" font-size="8.00">::format</text>
</a>
</g>
</g>
<!-- Node1&#45;&gt;Node5 -->
<g id="edge7_Node000001_Node000005" class="edge">
<title>Node1&#45;&gt;Node5</title>
<g id="a_edge7_Node000001_Node000005"><a xlink:title=" ">
<path fill="none" stroke="#63b8ff" d="M88.99,-131.64C135.18,-136.81 208.21,-144.99 258.27,-150.6"/>
<polygon fill="#63b8ff" stroke="#63b8ff" points="257.7,-154.06 268.02,-151.7 258.48,-147.1 257.7,-154.06"/>
</a>
</g>
</g>
<!-- Node7 -->
<g id="Node000007" class="node">
<title>Node7</title>
<g id="a_Node000007"><a xlink:href="namespaceizzi_1_1guilloche_1_1detail.html#aab7f3d5aac86808755dc7eecb7618cbc" target="_top" xlink:title=" ">
<polygon fill="white" stroke="#666666" points="227,-119.5 124.75,-119.5 124.75,-92 227,-92 227,-119.5"/>
<text xml:space="preserve" text-anchor="start" x="132.75" y="-107.9" font-family="SourceSans" font-size="8.00">izzi::guilloche::detail</text>
<text xml:space="preserve" text-anchor="middle" x="175.88" y="-98.15" font-family="SourceSans" font-size="8.00">::path_data</text>
</a>
</g>
</g>
<!-- Node1&#45;&gt;Node7 -->
<g id="edge8_Node000001_Node000007" class="edge">
<title>Node1&#45;&gt;Node7</title>
<g id="a_edge8_Node000001_Node000007"><a xlink:title=" ">
<path fill="none" stroke="#63b8ff" d="M89.22,-119.64C96.9,-118.39 105.02,-117.08 113.08,-115.77"/>
<polygon fill="#63b8ff" stroke="#63b8ff" points="113.57,-119.24 122.88,-114.18 112.45,-112.33 113.57,-119.24"/>
</a>
</g>
</g>
<!-- Node9 -->
<g id="Node000009" class="node">
<title>Node9</title>
<g id="a_Node000009"><a xlink:href="namespaceizzi_1_1graph_1_1detail.html#a0cb249efbbeccd9a8e81d8c17d9a7e70" target="_top" xlink:title=" ">
<polygon fill="white" stroke="#666666" points="220.25,-73.5 131.5,-73.5 131.5,-46 220.25,-46 220.25,-73.5"/>
<text xml:space="preserve" text-anchor="start" x="139.5" y="-61.9" font-family="SourceSans" font-size="8.00">izzi::graph::detail</text>
<text xml:space="preserve" text-anchor="middle" x="175.88" y="-52.15" font-family="SourceSans" font-size="8.00">::shape_name</text>
</a>
</g>
</g>
<!-- Node1&#45;&gt;Node9 -->
<g id="edge11_Node000001_Node000009" class="edge">
<title>Node1&#45;&gt;Node9</title>
<g id="a_edge11_Node000001_Node000009"><a xlink:title=" ">
<path fill="none" stroke="#63b8ff" d="M69.79,-112.59C85.36,-103.71 106.05,-92.21 124.75,-82.75 127.29,-81.46 129.92,-80.17 132.58,-78.88"/>
<polygon fill="#63b8ff" stroke="#63b8ff" points="133.98,-82.09 141.51,-74.64 130.98,-75.76 133.98,-82.09"/>
</a>
</g>
</g>
<!-- Node10 -->
<g id="Node000010" class="node">
<title>Node10</title>
<g id="a_Node000010"><a xlink:href="namespaceizzi_1_1guilloche.html#ae22f9126ef60170c60d517282766d687" target="_top" xlink:title=" ">
<polygon fill="white" stroke="#666666" points="219.5,-27.5 132.25,-27.5 132.25,0 219.5,0 219.5,-27.5"/>
<text xml:space="preserve" text-anchor="start" x="140.25" y="-15.9" font-family="SourceSans" font-size="8.00">izzi::guilloche::to</text>
<text xml:space="preserve" text-anchor="middle" x="175.88" y="-6.15" font-family="SourceSans" font-size="8.00">_string</text>
</a>
</g>
</g>
<!-- Node1&#45;&gt;Node10 -->
<g id="edge12_Node000001_Node000010" class="edge">
<title>Node1&#45;&gt;Node10</title>
<g id="a_edge12_Node000001_Node000010"><a xlink:title=" ">
<path fill="none" stroke="#63b8ff" d="M54.93,-112.61C68.54,-93.35 95.15,-58.75 124.75,-36.75 126.26,-35.63 127.82,-34.55 129.44,-33.5"/>
<polygon fill="#63b8ff" stroke="#63b8ff" points="130.83,-36.74 137.73,-28.7 127.32,-30.68 130.83,-36.74"/>
</a>
</g>
</g>
<!-- Node2&#45;&gt;Node3 -->
<g id="edge2_Node000002_Node000003" class="edge">
<title>Node2&#45;&gt;Node3</title>
<g id="a_edge2_Node000002_Node000003"><a xlink:title=" ">
<path fill="none" stroke="#63b8ff" d="M220.74,-200.05C232.65,-202.85 245.7,-205.91 258.14,-208.84"/>
<polygon fill="#63b8ff" stroke="#63b8ff" points="257.34,-212.24 267.87,-211.12 258.94,-205.43 257.34,-212.24"/>
</a>
</g>
</g>
<!-- Node2&#45;&gt;Node5 -->
<g id="edge4_Node000002_Node000005" class="edge">
<title>Node2&#45;&gt;Node5</title>
<g id="a_edge4_Node000002_Node000005"><a xlink:title=" ">
<path fill="none" stroke="#63b8ff" d="M220.74,-179.13C232.77,-176.21 245.96,-173.02 258.52,-169.98"/>
<polygon fill="#63b8ff" stroke="#63b8ff" points="258.98,-173.47 267.88,-167.71 257.33,-166.66 258.98,-173.47"/>
</a>
</g>
</g>
<!-- Node4 -->
<g id="Node000004" class="node">
<title>Node4</title>
<g id="a_Node000004"><a xlink:href="namespaceizzi_1_1guilloche_1_1detail.html#a0f39ea69d480939646bd0f6bbf954414" target="_top" xlink:title=" ">
<polygon fill="white" stroke="#666666" points="503.5,-235.5 401.25,-235.5 401.25,-208 503.5,-208 503.5,-235.5"/>
<text xml:space="preserve" text-anchor="start" x="409.25" y="-223.9" font-family="SourceSans" font-size="8.00">izzi::guilloche::detail</text>
<text xml:space="preserve" text-anchor="middle" x="452.38" y="-214.15" font-family="SourceSans" font-size="8.00">::escape_xml</text>
</a>
</g>
</g>
<!-- Node3&#45;&gt;Node4 -->
<g id="edge3_Node000003_Node000004" class="edge">
<title>Node3&#45;&gt;Node4</title>
<g id="a_edge3_Node000003_Node000004"><a xlink:title=" ">
<path fill="none" stroke="#63b8ff" d="M358.99,-221.75C368.71,-221.75 379.19,-221.75 389.48,-221.75"/>
<polygon fill="#63b8ff" stroke="#63b8ff" points="389.45,-225.25 399.45,-221.75 389.45,-218.25 389.45,-225.25"/>
</a>
</g>
</g>
<!-- Node6 -->
<g id="Node000006" class="node">
<title>Node6</title>
<g id="a_Node000006"><a xlink:href="namespaceizzi_1_1guilloche_1_1detail.html#aa7ee1d2e8673d6d8b091f7f5cc4e68ab" target="_top" xlink:title=" ">
<polygon fill="white" stroke="#666666" points="503.5,-149.5 401.25,-149.5 401.25,-122 503.5,-122 503.5,-149.5"/>
<text xml:space="preserve" text-anchor="start" x="409.25" y="-137.9" font-family="SourceSans" font-size="8.00">izzi::guilloche::detail</text>
<text xml:space="preserve" text-anchor="middle" x="452.38" y="-128.15" font-family="SourceSans" font-size="8.00">::format_number</text>
</a>
</g>
</g>
<!-- Node5&#45;&gt;Node6 -->
<g id="edge5_Node000005_Node000006" class="edge">
<title>Node5&#45;&gt;Node6</title>
<g id="a_edge5_Node000005_Node000006"><a xlink:title=" ">
<path fill="none" stroke="#63b8ff" d="M358.99,-149.99C368.81,-148.48 379.41,-146.84 389.81,-145.24"/>
<polygon fill="#63b8ff" stroke="#63b8ff" points="390.12,-148.73 399.47,-143.75 389.05,-141.81 390.12,-148.73"/>
</a>
</g>
</g>
<!-- Node7&#45;&gt;Node6 -->
<g id="edge9_Node000007_Node000006" class="edge">
<title>Node7&#45;&gt;Node6</title>
<g id="a_edge9_Node000007_Node000006"><a xlink:title=" ">
<path fill="none" stroke="#63b8ff" d="M227.22,-111.25C272.93,-116.25 340.49,-123.63 389.48,-128.99"/>
<polygon fill="#63b8ff" stroke="#63b8ff" points="389.06,-132.46 399.38,-130.07 389.82,-125.5 389.06,-132.46"/>
</a>
</g>
</g>
<!-- Node8 -->
<g id="Node000008" class="node">
<title>Node8</title>
<g id="a_Node000008"><a xlink:href="namespaceizzi_1_1guilloche_1_1detail.html#aa2e3cb80bde026ce4a045068023f69c2" target="_top" xlink:title=" ">
<polygon fill="white" stroke="#666666" points="365.25,-86.5 263,-86.5 263,-59 365.25,-59 365.25,-86.5"/>
<text xml:space="preserve" text-anchor="start" x="271" y="-74.9" font-family="SourceSans" font-size="8.00">izzi::guilloche::detail</text>
<text xml:space="preserve" text-anchor="middle" x="314.12" y="-65.15" font-family="SourceSans" font-size="8.00">::require</text>
</a>
</g>
</g>
<!-- Node7&#45;&gt;Node8 -->
<g id="edge10_Node000007_Node000008" class="edge">
<title>Node7&#45;&gt;Node8</title>
<g id="a_edge10_Node000007_Node000008"><a xlink:title=" ">
<path fill="none" stroke="#63b8ff" d="M227.22,-93.56C235.14,-91.64 243.41,-89.63 251.55,-87.66"/>
<polygon fill="#63b8ff" stroke="#63b8ff" points="252.16,-91.12 261.06,-85.36 250.52,-84.31 252.16,-91.12"/>
</a>
</g>
</g>
</g>
</svg>

<g id="navigator" transform="translate(0 0)" fill="#404254">
  <rect fill="#f2f5e9" fill-opacity="0.5" stroke="#606060" stroke-width=".5" x="0" y="0" width="60" height="60"/>
  <use id="zoomplus" xlink:href="#zoomPlus" x="17" y="9" onmousedown="handleZoom(evt,'in')"/>
  <use id="zoomminus" xlink:href="#zoomMin" x="42" y="9" onmousedown="handleZoom(evt,'out')"/>
  <use id="reset" xlink:href="#resetDef" x="30" y="36" onmousedown="handleReset()"/>
   <use id="arrowup" xlink:href="#arrowUp" x="0" y="0" onmousedown="handlePan(0,-1)"/>
  <use id="arrowright" xlink:href="#arrowRight" x="0" y="0" onmousedown="handlePan(1,0)"/>
  <use id="arrowdown" xlink:href="#arrowDown" x="0" y="0" onmousedown="handlePan(0,1)"/>
  <use id="arrowleft" xlink:href="#arrowLeft" x="0" y="0" onmousedown="handlePan(-1,0)"/>
</g>
<svg viewBox="0 0 15 15" width="100%" height="30px" preserveAspectRatio="xMaxYMin meet">
 <g id="arrow_out" transform="scale(0.3 0.3)">
  <a xlink:href="namespaceizzi_1_1graph_1_1detail_a4fd8cc2400c9d4f2af4bb84205c3d44c_cgraph_org.svg" target="_base">
   <rect id="button" ry="5" rx="5" y="6" x="6" height="38" width="38"
        fill="#f2f5e9" fill-opacity="0.5" stroke="#606060" stroke-width="1.0"/>
   <path id="arrow"
     d="M 11.500037,31.436501 C 11.940474,20.09759 22.043105,11.32322 32.158766,21.979434 L 37.068811,17.246167 C 37.068811,17.246167 37.088388,32 37.088388,32 L 22.160133,31.978069 C 22.160133,31.978069 26.997745,27.140456 26.997745,27.140456 C 18.528582,18.264221 13.291696,25.230495 11.500037,31.436501 z"
     style="fill:#404040;"/>
  </a>
 </g>
</svg>

<style type='text/css'>
<![CDATA[
[data-mouse-over-selected='false'] { opacity: 0.7; }
[data-mouse-over-selected='true']  { opacity: 1.0; }
]]>
</style>
<script type="application/ecmascript"><![CDATA[
document.addEventListener('DOMContentLoaded', (event) => {
  highlightEdges();
  highlightAdjacentNodes();
});
]]></script>
</svg>
