<?xml version="1.0" encoding="UTF-8" standalone="no"?>
<!DOCTYPE svg PUBLIC "-//W3C//DTD SVG 1.1//EN"
 "http://www.w3.org/Graphics/SVG/1.1/DTD/svg11.dtd">
<!-- Generated by graphviz version 13.1.2 (20250808.2320)
 -->
<!-- Title: svg::make_rect Pages: 1 -->
<!--zoomable 258 -->

<svg id="main" version="1.1" xmlns="http://www.w3.org/2000/svg" xmlns:xlink="http://www.w3.org/1999/xlink" xml:space="preserve" onload="init(evt)">

<style type="text/css"><![CDATA[
.node, .edge {opacity: 0.7;}
.node.selected, .edge.selected {opacity: 1;}
.edge:hover path { stroke: red; }
.edge:hover polygon { stroke: red; fill: red; }
]]></style>

<defs>
  <circle id="rim" cx="0" cy="0" r="7"/>
  <circle id="rim2" cx="0" cy="0" r="3.5"/>
  <g id="zoomPlus">
    <use xlink:href="#rim" fill="#404040"><set attributeName="fill" to="#808080" begin="zoomplus.mouseover" end="zoomplus.mouseout"/></use>
    <path d="M-4,0h8M0,-4v8" fill="none" stroke="white" stroke-width="1.5" pointer-events="none"/>
  </g>
  <g id="zoomMin">
    <use xlink:href="#rim" fill="#404040"><set attributeName="fill" to="#808080" begin="zoomminus.mouseover" end="zoomminus.mouseout"/></use>
    <path d="M-4,0h8" fill="none" stroke="white" stroke-width="1.5" pointer-events="none"/>
  </g>
  <g id="arrowUp" transform="translate(30 24)">
    <use xlink:href="#rim"/>
    <path pointer-events="none" fill="none" stroke="white" stroke-width="1.5" d="M0,-3.0v7 M-2.5,-0.5L0,-3.0L2.5,-0.5"/>
  </g>
  <g id="arrowRight" transform="rotate(90) translate(36 -43)">
    <use xlink:href="#rim"/>
    <path pointer-events="none" fill="none" stroke="white" stroke-width="1.5" d="M0,-3.0v7 M-2.5,-0.5L0,-3.0L2.5,-0.5"/>
  </g>
  <g id="arrowDown" transform="rotate(180) translate(-30 -48)">
    <use xlink:href="#rim"/>
    <path pointer-events="none" fill="none" stroke="white" stroke-width="1.5" d="M0,-3.0v7 M-2.5,-0.5L0,-3.0L2.5,-0.5"/>
  </g>
  <g id="arrowLeft" transform="rotate(270) translate(-36 17)">
    <use xlink:href="#rim"/>
    <path pointer-events="none" fill="none" stroke="white" stroke-width="1.5" d="M0,-3.0v7 M-2.5,-0.5L0,-3.0L2.5,-0.5"/>
  </g>
  <g id="resetDef">
    <use xlink:href="#rim2" fill="#404040"><set attributeName="fill" to="#808080" begin="reset.mouseover" end="reset.mouseout"/></use>
  </g>
</defs>
<script type="application/ecmascript">
var viewWidth = 686;
var viewHeight = 258;
var sectionId = 'dynsection-98';
</script>
<script type="application/ecmascript" xlink:href="svg.min.js"/>
<svg id="graph" class="graph">
<g id="viewport">
<title>svg::make_rect</title>
<!-- Node1 -->
<g id="Node000001" class="node">
<title>Node1</title>
<g id="a_Node000001"><a xlink:title="Create rect_element at origin.">
<polygon fill="#999999" stroke="#666666" points="76.75,-137.62 0,-137.62 0,-119.88 76.75,-119.88 76.75,-137.62"/>
<text xml:space="preserve" text-anchor="middle" x="38.38" y="-126.03" font-family="SourceSans" font-size="8.00">svg::make_rect</text>
</a>
</g>
</g>
<!-- Node2 -->
<g id="Node000002" class="node">
<title>Node2</title>
<g id="a_Node000002"><a xlink:href="group__elements.html#a1dd6663d882fb5dd14a47462a77f351b" target="_top" xlink:title="Either serialize immediately (as below), or create data structure that adds data to data_vec and then...">
<polygon fill="white" stroke="#666666" points="210.12,-249.5 115.38,-249.5 115.38,-222 210.12,-222 210.12,-249.5"/>
<text xml:space="preserve" text-anchor="start" x="123.38" y="-237.9" font-family="SourceSans" font-size="8.00">svg::rect_element::</text>
<text xml:space="preserve" text-anchor="middle" x="162.75" y="-228.15" font-family="SourceSans" font-size="8.00">add_data</text>
</a>
</g>
</g>
<!-- Node1&#45;&gt;Node2 -->
<g id="edge1_Node000001_Node000002" class="edge">
<title>Node1&#45;&gt;Node2</title>
<g id="a_edge1_Node000001_Node000002"><a xlink:title=" ">
<path fill="none" stroke="#63b8ff" d="M46.32,-137.88C58.53,-153.52 85.18,-185.88 112.75,-207.75 116.23,-210.51 120.02,-213.18 123.9,-215.69"/>
<polygon fill="#63b8ff" stroke="#63b8ff" points="121.94,-218.59 132.3,-220.81 125.58,-212.62 121.94,-218.59"/>
</a>
</g>
</g>
<!-- Node3 -->
<g id="Node000003" class="node">
<title>Node3</title>
<g id="a_Node000003"><a xlink:href="group__elements.html#a1b22cfab9437b40c8b877ffe5472ff02" target="_top" xlink:title=" ">
<polygon fill="white" stroke="#666666" points="358.88,-206.5 258.88,-206.5 258.88,-179 358.88,-179 358.88,-206.5"/>
<text xml:space="preserve" text-anchor="start" x="266.88" y="-194.9" font-family="SourceSans" font-size="8.00">svg::element_base::</text>
<text xml:space="preserve" text-anchor="middle" x="308.88" y="-185.15" font-family="SourceSans" font-size="8.00">add_filter</text>
</a>
</g>
</g>
<!-- Node1&#45;&gt;Node3 -->
<g id="edge2_Node000001_Node000003" class="edge">
<title>Node1&#45;&gt;Node3</title>
<g id="a_edge2_Node000001_Node000003"><a xlink:title=" ">
<path fill="none" stroke="#63b8ff" d="M50.46,-138.06C64.12,-148.97 88.54,-166.56 112.75,-174.75 156.07,-189.39 207.69,-193.62 246.95,-194.34"/>
<polygon fill="#63b8ff" stroke="#63b8ff" points="246.91,-197.84 256.95,-194.44 246.98,-190.84 246.91,-197.84"/>
</a>
</g>
</g>
<!-- Node6 -->
<g id="Node000006" class="node">
<title>Node6</title>
<g id="a_Node000006"><a xlink:href="group__elements.html#a238b38ca99a1cf6c2baf80c8e4338d99" target="_top" xlink:title=" ">
<polygon fill="white" stroke="#666666" points="212.75,-165.5 112.75,-165.5 112.75,-138 212.75,-138 212.75,-165.5"/>
<text xml:space="preserve" text-anchor="start" x="120.75" y="-153.9" font-family="SourceSans" font-size="8.00">svg::element_base::</text>
<text xml:space="preserve" text-anchor="middle" x="162.75" y="-144.15" font-family="SourceSans" font-size="8.00">add_style</text>
</a>
</g>
</g>
<!-- Node1&#45;&gt;Node6 -->
<g id="edge5_Node000001_Node000006" class="edge">
<title>Node1&#45;&gt;Node6</title>
<g id="a_edge5_Node000001_Node000006"><a xlink:title=" ">
<path fill="none" stroke="#63b8ff" d="M77.09,-135.84C84.82,-137.29 93.13,-138.85 101.42,-140.41"/>
<polygon fill="#63b8ff" stroke="#63b8ff" points="100.7,-143.84 111.17,-142.24 101.99,-136.96 100.7,-143.84"/>
</a>
</g>
</g>
<!-- Node8 -->
<g id="Node000008" class="node">
<title>Node8</title>
<g id="a_Node000008"><a xlink:href="group__elements.html#a53d72a7ff728ad1d4d027254530bcf3d" target="_top" xlink:title=" ">
<polygon fill="white" stroke="#666666" points="212.75,-119.5 112.75,-119.5 112.75,-92 212.75,-92 212.75,-119.5"/>
<text xml:space="preserve" text-anchor="start" x="120.75" y="-107.9" font-family="SourceSans" font-size="8.00">svg::element_base::</text>
<text xml:space="preserve" text-anchor="middle" x="162.75" y="-98.15" font-family="SourceSans" font-size="8.00">add_transform</text>
</a>
</g>
</g>
<!-- Node1&#45;&gt;Node8 -->
<g id="edge7_Node000001_Node000008" class="edge">
<title>Node1&#45;&gt;Node8</title>
<g id="a_edge7_Node000001_Node000008"><a xlink:title=" ">
<path fill="none" stroke="#63b8ff" d="M77.09,-121.66C84.82,-120.21 93.13,-118.65 101.42,-117.09"/>
<polygon fill="#63b8ff" stroke="#63b8ff" points="101.99,-120.54 111.17,-115.26 100.7,-113.66 101.99,-120.54"/>
</a>
</g>
</g>
<!-- Node10 -->
<g id="Node000010" class="node">
<title>Node10</title>
<g id="a_Node000010"><a xlink:href="group__elements.html#gad01750ac554c6bd6871a930c90e17a04" target="_top" xlink:title=" ">
<polygon fill="white" stroke="#666666" points="210.12,-73.5 115.38,-73.5 115.38,-46 210.12,-46 210.12,-73.5"/>
<text xml:space="preserve" text-anchor="start" x="123.38" y="-61.9" font-family="SourceSans" font-size="8.00">svg::rect_element::</text>
<text xml:space="preserve" text-anchor="middle" x="162.75" y="-52.15" font-family="SourceSans" font-size="8.00">finish_element</text>
</a>
</g>
</g>
<!-- Node1&#45;&gt;Node10 -->
<g id="edge10_Node000001_Node000010" class="edge">
<title>Node1&#45;&gt;Node10</title>
<g id="a_edge10_Node000001_Node000010"><a xlink:title=" ">
<path fill="none" stroke="#63b8ff" d="M53.14,-119.42C67.66,-109.74 91.37,-94.41 112.75,-82.75 115.08,-81.48 117.5,-80.21 119.95,-78.95"/>
<polygon fill="#63b8ff" stroke="#63b8ff" points="121.34,-82.17 128.74,-74.59 118.23,-75.89 121.34,-82.17"/>
</a>
</g>
</g>
<!-- Node11 -->
<g id="Node000011" class="node">
<title>Node11</title>
<g id="a_Node000011"><a xlink:href="group__elements.html#a1e0ed5e9dfe1244317a87d7e6774348b" target="_top" xlink:title=" ">
<polygon fill="white" stroke="#666666" points="210.12,-27.5 115.38,-27.5 115.38,0 210.12,0 210.12,-27.5"/>
<text xml:space="preserve" text-anchor="start" x="123.38" y="-15.9" font-family="SourceSans" font-size="8.00">svg::rect_element::</text>
<text xml:space="preserve" text-anchor="middle" x="162.75" y="-6.15" font-family="SourceSans" font-size="8.00">start_element</text>
</a>
</g>
</g>
<!-- Node1&#45;&gt;Node11 -->
<g id="edge11_Node000001_Node000011" class="edge">
<title>Node1&#45;&gt;Node11</title>
<g id="a_edge11_Node000001_Node000011"><a xlink:title=" ">
<path fill="none" stroke="#63b8ff" d="M44.73,-119.5C55.54,-101.48 81.64,-61.31 112.75,-36.75 114.04,-35.73 115.38,-34.74 116.77,-33.79"/>
<polygon fill="#63b8ff" stroke="#63b8ff" points="118.32,-36.94 125.03,-28.75 114.67,-30.97 118.32,-36.94"/>
</a>
</g>
</g>
<!-- Node4 -->
<g id="Node000004" class="node">
<title>Node4</title>
<g id="a_Node000004"><a xlink:href="namespacesvg.html#ac91e1a80dd6b2df85fd06a07320bc6ce" target="_top" xlink:title="Escape unescaped data for a double&#45;quoted XML attribute value.">
<polygon fill="white" stroke="#666666" points="528.25,-158.62 405,-158.62 405,-140.88 528.25,-140.88 528.25,-158.62"/>
<text xml:space="preserve" text-anchor="middle" x="466.62" y="-147.03" font-family="SourceSans" font-size="8.00">svg::escape_xml_attribute</text>
</a>
</g>
</g>
<!-- Node3&#45;&gt;Node4 -->
<g id="edge3_Node000003_Node000004" class="edge">
<title>Node3&#45;&gt;Node4</title>
<g id="a_edge3_Node000003_Node000004"><a xlink:title=" ">
<path fill="none" stroke="#63b8ff" d="M359.16,-179.14C378.97,-173.67 401.66,-167.41 420.98,-162.07"/>
<polygon fill="#63b8ff" stroke="#63b8ff" points="421.76,-165.49 430.47,-159.46 419.9,-158.74 421.76,-165.49"/>
</a>
</g>
</g>
<!-- Node5 -->
<g id="Node000005" class="node">
<title>Node5</title>
<g id="a_Node000005"><a xlink:href="namespacesvg_1_1detail.html#a0dabd749799988c1aae4474d923c6fd1" target="_top" xlink:title="Escape unescaped character data at its XML serialization boundary. Existing entity spellings are data...">
<polygon fill="white" stroke="#666666" points="677.75,-158.62 564.25,-158.62 564.25,-140.88 677.75,-140.88 677.75,-158.62"/>
<text xml:space="preserve" text-anchor="middle" x="621" y="-147.03" font-family="SourceSans" font-size="8.00">svg::detail::escape_xml</text>
</a>
</g>
</g>
<!-- Node4&#45;&gt;Node5 -->
<g id="edge4_Node000004_Node000005" class="edge">
<title>Node4&#45;&gt;Node5</title>
<g id="a_edge4_Node000004_Node000005"><a xlink:title=" ">
<path fill="none" stroke="#63b8ff" d="M528.72,-149.75C536.51,-149.75 544.52,-149.75 552.4,-149.75"/>
<polygon fill="#63b8ff" stroke="#63b8ff" points="552.31,-153.25 562.31,-149.75 552.31,-146.25 552.31,-153.25"/>
</a>
</g>
</g>
<!-- Node7 -->
<g id="Node000007" class="node">
<title>Node7</title>
<g id="a_Node000007"><a xlink:href="namespacesvg.html#ac10e7d47d031b121174fc0e65232980f" target="_top" xlink:title="Convert point_2t to string.">
<polygon fill="white" stroke="#666666" points="344.62,-160.62 273.12,-160.62 273.12,-142.88 344.62,-142.88 344.62,-160.62"/>
<text xml:space="preserve" text-anchor="middle" x="308.88" y="-149.03" font-family="SourceSans" font-size="8.00">svg::to_string</text>
</a>
</g>
</g>
<!-- Node6&#45;&gt;Node7 -->
<g id="edge6_Node000006_Node000007" class="edge">
<title>Node6&#45;&gt;Node7</title>
<g id="a_edge6_Node000006_Node000007"><a xlink:title=" ">
<path fill="none" stroke="#63b8ff" d="M212.95,-151.75C228.67,-151.75 246.02,-151.75 261.53,-151.75"/>
<polygon fill="#63b8ff" stroke="#63b8ff" points="261.47,-155.25 271.47,-151.75 261.47,-148.25 261.47,-155.25"/>
</a>
</g>
</g>
<!-- Node9 -->
<g id="Node000009" class="node">
<title>Node9</title>
<g id="a_Node000009"><a xlink:href="group__elements.html#ae50258851ebbaf08c7eebc3fbdbf1ac8" target="_top" xlink:title="Common transforms include rotate(180)">
<polygon fill="white" stroke="#666666" points="369,-122.5 248.75,-122.5 248.75,-95 369,-95 369,-122.5"/>
<text xml:space="preserve" text-anchor="start" x="256.75" y="-110.9" font-family="SourceSans" font-size="8.00">svg::element_base::</text>
<text xml:space="preserve" text-anchor="middle" x="308.88" y="-101.15" font-family="SourceSans" font-size="8.00">make_transform_attribute</text>
</a>
</g>
</g>
<!-- Node8&#45;&gt;Node9 -->
<g id="edge8_Node000008_Node000009" class="edge">
<title>Node8&#45;&gt;Node9</title>
<g id="a_edge8_Node000008_Node000009"><a xlink:title=" ">
<path fill="none" stroke="#63b8ff" d="M212.95,-106.77C220.71,-106.94 228.86,-107.11 236.99,-107.27"/>
<polygon fill="#63b8ff" stroke="#63b8ff" points="236.85,-110.77 246.92,-107.48 237,-103.77 236.85,-110.77"/>
</a>
</g>
</g>
<!-- Node9&#45;&gt;Node4 -->
<g id="edge9_Node000009_Node000004" class="edge">
<title>Node9&#45;&gt;Node4</title>
<g id="a_edge9_Node000009_Node000004"><a xlink:title=" ">
<path fill="none" stroke="#63b8ff" d="M363.91,-122.97C381.93,-127.72 401.83,-132.96 419.22,-137.53"/>
<polygon fill="#63b8ff" stroke="#63b8ff" points="418.21,-140.89 428.77,-140.05 419.99,-134.12 418.21,-140.89"/>
</a>
</g>
</g>
</g>
</svg>

<g id="navigator" transform="translate(0 0)" fill="#404254">
  <rect fill="#f2f5e9" fill-opacity="0.5" stroke="#606060" stroke-width=".5" x="0" y="0" width="60" height="60"/>
  <use id="zoomplus" xlink:href="#zoomPlus" x="17" y="9" onmousedown="handleZoom(evt,'in')"/>
  <use id="zoomminus" xlink:href="#zoomMin" x="42" y="9" onmousedown="handleZoom(evt,'out')"/>
  <use id="reset" xlink:href="#resetDef" x="30" y="36" onmousedown="handleReset()"/>
   <use id="arrowup" xlink:href="#arrowUp" x="0" y="0" onmousedown="handlePan(0,-1)"/>
  <use id="arrowright" xlink:href="#arrowRight" x="0" y="0" onmousedown="handlePan(1,0)"/>
  <use id="arrowdown" xlink:href="#arrowDown" x="0" y="0" onmousedown="handlePan(0,1)"/>
  <use id="arrowleft" xlink:href="#arrowLeft" x="0" y="0" onmousedown="handlePan(-1,0)"/>
</g>
<svg viewBox="0 0 15 15" width="100%" height="30px" preserveAspectRatio="xMaxYMin meet">
 <g id="arrow_out" transform="scale(0.3 0.3)">
  <a xlink:href="namespacesvg_a09509ddd1e99609e1e4c06690328d919_cgraph_org.svg" target="_base">
   <rect id="button" ry="5" rx="5" y="6" x="6" height="38" width="38"
        fill="#f2f5e9" fill-opacity="0.5" stroke="#606060" stroke-width="1.0"/>
   <path id="arrow"
     d="M 11.500037,31.436501 C 11.940474,20.09759 22.043105,11.32322 32.158766,21.979434 L 37.068811,17.246167 C 37.068811,17.246167 37.088388,32 37.088388,32 L 22.160133,31.978069 C 22.160133,31.978069 26.997745,27.140456 26.997745,27.140456 C 18.528582,18.264221 13.291696,25.230495 11.500037,31.436501 z"
     style="fill:#404040;"/>
  </a>
 </g>
</svg>

<style type='text/css'>
<![CDATA[
[data-mouse-over-selected='false'] { opacity: 0.7; }
[data-mouse-over-selected='true']  { opacity: 1.0; }
]]>
</style>
<script type="application/ecmascript"><![CDATA[
document.addEventListener('DOMContentLoaded', (event) => {
  highlightEdges();
  highlightAdjacentNodes();
});
]]></script>
</svg>
