<?xml version="1.0" encoding="UTF-8" standalone="no"?>
<!DOCTYPE svg PUBLIC "-//W3C//DTD SVG 1.1//EN"
 "http://www.w3.org/Graphics/SVG/1.1/DTD/svg11.dtd">
<!-- Generated by graphviz version 13.1.2 (20250808.2320)
 -->
<!-- Title: svg::hamonshu::detail::make_arcs Pages: 1 -->
<!--zoomable 634 -->

<svg id="main" version="1.1" xmlns="http://www.w3.org/2000/svg" xmlns:xlink="http://www.w3.org/1999/xlink" xml:space="preserve" onload="init(evt)">

<style type="text/css"><![CDATA[
.node, .edge {opacity: 0.7;}
.node.selected, .edge.selected {opacity: 1;}
.edge:hover path { stroke: red; }
.edge:hover polygon { stroke: red; fill: red; }
]]></style>

<defs>
  <circle id="rim" cx="0" cy="0" r="7"/>
  <circle id="rim2" cx="0" cy="0" r="3.5"/>
  <g id="zoomPlus">
    <use xlink:href="#rim" fill="#404040"><set attributeName="fill" to="#808080" begin="zoomplus.mouseover" end="zoomplus.mouseout"/></use>
    <path d="M-4,0h8M0,-4v8" fill="none" stroke="white" stroke-width="1.5" pointer-events="none"/>
  </g>
  <g id="zoomMin">
    <use xlink:href="#rim" fill="#404040"><set attributeName="fill" to="#808080" begin="zoomminus.mouseover" end="zoomminus.mouseout"/></use>
    <path d="M-4,0h8" fill="none" stroke="white" stroke-width="1.5" pointer-events="none"/>
  </g>
  <g id="arrowUp" transform="translate(30 24)">
    <use xlink:href="#rim"/>
    <path pointer-events="none" fill="none" stroke="white" stroke-width="1.5" d="M0,-3.0v7 M-2.5,-0.5L0,-3.0L2.5,-0.5"/>
  </g>
  <g id="arrowRight" transform="rotate(90) translate(36 -43)">
    <use xlink:href="#rim"/>
    <path pointer-events="none" fill="none" stroke="white" stroke-width="1.5" d="M0,-3.0v7 M-2.5,-0.5L0,-3.0L2.5,-0.5"/>
  </g>
  <g id="arrowDown" transform="rotate(180) translate(-30 -48)">
    <use xlink:href="#rim"/>
    <path pointer-events="none" fill="none" stroke="white" stroke-width="1.5" d="M0,-3.0v7 M-2.5,-0.5L0,-3.0L2.5,-0.5"/>
  </g>
  <g id="arrowLeft" transform="rotate(270) translate(-36 17)">
    <use xlink:href="#rim"/>
    <path pointer-events="none" fill="none" stroke="white" stroke-width="1.5" d="M0,-3.0v7 M-2.5,-0.5L0,-3.0L2.5,-0.5"/>
  </g>
  <g id="resetDef">
    <use xlink:href="#rim2" fill="#404040"><set attributeName="fill" to="#808080" begin="reset.mouseover" end="reset.mouseout"/></use>
  </g>
</defs>
<script type="application/ecmascript">
var viewWidth = 262;
var viewHeight = 634;
var sectionId = 'dynsection-1';
</script>
<script type="application/ecmascript" xlink:href="svg.min.js"/>
<svg id="graph" class="graph">
<g id="viewport">
<title>svg::hamonshu::detail::make_arcs</title>
<!-- Node1 -->
<g id="Node000001" class="node">
<title>Node1</title>
<g id="a_Node000001"><a xlink:title=" ">
<polygon fill="#999999" stroke="#666666" points="109,-326.5 0,-326.5 0,-299 109,-299 109,-326.5"/>
<text xml:space="preserve" text-anchor="start" x="8" y="-314.9" font-family="SourceSans" font-size="8.00">svg::hamonshu::detail</text>
<text xml:space="preserve" text-anchor="middle" x="54.5" y="-305.15" font-family="SourceSans" font-size="8.00">::make_arcs</text>
</a>
</g>
</g>
<!-- Node1&#45;&gt;Node1 -->
<g id="edge1_Node000001_Node000001" class="edge">
<title>Node1&#45;&gt;Node1</title>
<g id="a_edge1_Node000001_Node000001"><a xlink:title=" ">
<path fill="none" stroke="#63b8ff" d="M29.46,-326.79C22.93,-335.81 31.28,-344.5 54.5,-344.5 67.2,-344.5 75.45,-341.9 79.25,-338.07"/>
<polygon fill="#63b8ff" stroke="#63b8ff" points="82.74,-338.39 79.5,-328.3 75.75,-338.21 82.74,-338.39"/>
</a>
</g>
</g>
<!-- Node2 -->
<g id="Node000002" class="node">
<title>Node2</title>
<g id="a_Node000002"><a xlink:href="namespacesvg_1_1hamonshu_1_1detail.html#ab5e7b5017bf961aeed8b842973db7e2c" target="_top" xlink:title=" ">
<polygon fill="white" stroke="#666666" points="254,-625.5 145,-625.5 145,-598 254,-598 254,-625.5"/>
<text xml:space="preserve" text-anchor="start" x="153" y="-613.9" font-family="SourceSans" font-size="8.00">svg::hamonshu::detail</text>
<text xml:space="preserve" text-anchor="middle" x="199.5" y="-604.15" font-family="SourceSans" font-size="8.00">::make_braids</text>
</a>
</g>
</g>
<!-- Node1&#45;&gt;Node2 -->
<g id="edge2_Node000001_Node000002" class="edge">
<title>Node1&#45;&gt;Node2</title>
<g id="a_edge2_Node000001_Node000002"><a xlink:title=" ">
<path fill="none" stroke="#63b8ff" d="M56.11,-326.78C58.76,-371.04 72.72,-509.46 145,-588.75 145.59,-589.39 146.2,-590.02 146.82,-590.63"/>
<polygon fill="#63b8ff" stroke="#63b8ff" points="144.64,-593.37 154.69,-596.72 148.93,-587.83 144.64,-593.37"/>
</a>
</g>
</g>
<!-- Node3 -->
<g id="Node000003" class="node">
<title>Node3</title>
<g id="a_Node000003"><a xlink:href="namespacesvg_1_1hamonshu_1_1detail.html#af7c9d56a44d1a9b46b1fbc54c9d8a563" target="_top" xlink:title=" ">
<polygon fill="white" stroke="#666666" points="254,-579.5 145,-579.5 145,-552 254,-552 254,-579.5"/>
<text xml:space="preserve" text-anchor="start" x="153" y="-567.9" font-family="SourceSans" font-size="8.00">svg::hamonshu::detail</text>
<text xml:space="preserve" text-anchor="middle" x="199.5" y="-558.15" font-family="SourceSans" font-size="8.00">::make_breakers</text>
</a>
</g>
</g>
<!-- Node1&#45;&gt;Node3 -->
<g id="edge3_Node000001_Node000003" class="edge">
<title>Node1&#45;&gt;Node3</title>
<g id="a_edge3_Node000001_Node000003"><a xlink:title=" ">
<path fill="none" stroke="#63b8ff" d="M57.19,-326.93C62.6,-366.34 82.94,-478.49 145,-542.75 145.72,-543.5 146.47,-544.22 147.25,-544.92"/>
<polygon fill="#63b8ff" stroke="#63b8ff" points="145,-547.62 155.13,-550.73 149.15,-541.98 145,-547.62"/>
</a>
</g>
</g>
<!-- Node4 -->
<g id="Node000004" class="node">
<title>Node4</title>
<g id="a_Node000004"><a xlink:href="namespacesvg_1_1hamonshu_1_1detail.html#a9a094029e4336e8d466d354c56ea6667" target="_top" xlink:title=" ">
<polygon fill="white" stroke="#666666" points="254,-533.5 145,-533.5 145,-506 254,-506 254,-533.5"/>
<text xml:space="preserve" text-anchor="start" x="153" y="-521.9" font-family="SourceSans" font-size="8.00">svg::hamonshu::detail</text>
<text xml:space="preserve" text-anchor="middle" x="199.5" y="-512.15" font-family="SourceSans" font-size="8.00">::make_bubbles</text>
</a>
</g>
</g>
<!-- Node1&#45;&gt;Node4 -->
<g id="edge4_Node000001_Node000004" class="edge">
<title>Node1&#45;&gt;Node4</title>
<g id="a_edge4_Node000001_Node000004"><a xlink:title=" ">
<path fill="none" stroke="#63b8ff" d="M58.77,-326.99C67.25,-360.86 92.96,-447.09 145,-496.75 145.88,-497.59 146.79,-498.4 147.73,-499.18"/>
<polygon fill="#63b8ff" stroke="#63b8ff" points="145.43,-501.84 155.64,-504.65 149.41,-496.08 145.43,-501.84"/>
</a>
</g>
</g>
<!-- Node5 -->
<g id="Node000005" class="node">
<title>Node5</title>
<g id="a_Node000005"><a xlink:href="namespacesvg_1_1hamonshu_1_1detail.html#a5da08b490bdf787e79c21f83a97dc506" target="_top" xlink:title=" ">
<polygon fill="white" stroke="#666666" points="254,-487.5 145,-487.5 145,-460 254,-460 254,-487.5"/>
<text xml:space="preserve" text-anchor="start" x="153" y="-475.9" font-family="SourceSans" font-size="8.00">svg::hamonshu::detail</text>
<text xml:space="preserve" text-anchor="middle" x="199.5" y="-466.15" font-family="SourceSans" font-size="8.00">::make_cascade</text>
</a>
</g>
</g>
<!-- Node1&#45;&gt;Node5 -->
<g id="edge5_Node000001_Node000005" class="edge">
<title>Node1&#45;&gt;Node5</title>
<g id="a_edge5_Node000001_Node000005"><a xlink:title=" ">
<path fill="none" stroke="#63b8ff" d="M61.25,-326.83C73.09,-354.2 102.66,-415.03 145,-450.75 146.11,-451.69 147.26,-452.59 148.45,-453.46"/>
<polygon fill="#63b8ff" stroke="#63b8ff" points="146.49,-456.36 156.82,-458.72 150.22,-450.43 146.49,-456.36"/>
</a>
</g>
</g>
<!-- Node6 -->
<g id="Node000006" class="node">
<title>Node6</title>
<g id="a_Node000006"><a xlink:href="namespacesvg_1_1hamonshu_1_1detail.html#a157b25da0cecaca0282d3a7f31466153" target="_top" xlink:title=" ">
<polygon fill="white" stroke="#666666" points="254,-441.5 145,-441.5 145,-414 254,-414 254,-441.5"/>
<text xml:space="preserve" text-anchor="start" x="153" y="-429.9" font-family="SourceSans" font-size="8.00">svg::hamonshu::detail</text>
<text xml:space="preserve" text-anchor="middle" x="199.5" y="-420.15" font-family="SourceSans" font-size="8.00">::make_clouds</text>
</a>
</g>
</g>
<!-- Node1&#45;&gt;Node6 -->
<g id="edge6_Node000001_Node000006" class="edge">
<title>Node1&#45;&gt;Node6</title>
<g id="a_edge6_Node000001_Node000006"><a xlink:title=" ">
<path fill="none" stroke="#63b8ff" d="M66.26,-326.91C81.82,-346.57 112.32,-382.27 145,-404.75 146.78,-405.97 148.64,-407.16 150.54,-408.29"/>
<polygon fill="#63b8ff" stroke="#63b8ff" points="148.58,-411.21 159.05,-412.87 151.9,-405.05 148.58,-411.21"/>
</a>
</g>
</g>
<!-- Node7 -->
<g id="Node000007" class="node">
<title>Node7</title>
<g id="a_Node000007"><a xlink:href="namespacesvg_1_1hamonshu_1_1detail.html#ad51ddbc3c333374d802c111eef9a310d" target="_top" xlink:title=" ">
<polygon fill="white" stroke="#666666" points="254,-395.5 145,-395.5 145,-368 254,-368 254,-395.5"/>
<text xml:space="preserve" text-anchor="start" x="153" y="-383.9" font-family="SourceSans" font-size="8.00">svg::hamonshu::detail</text>
<text xml:space="preserve" text-anchor="middle" x="199.5" y="-374.15" font-family="SourceSans" font-size="8.00">::make_crests</text>
</a>
</g>
</g>
<!-- Node1&#45;&gt;Node7 -->
<g id="edge7_Node000001_Node000007" class="edge">
<title>Node1&#45;&gt;Node7</title>
<g id="a_edge7_Node000001_Node000007"><a xlink:title=" ">
<path fill="none" stroke="#63b8ff" d="M81.89,-326.92C99.59,-336.27 123.51,-348.62 145,-358.75 148.06,-360.19 151.23,-361.65 154.43,-363.09"/>
<polygon fill="#63b8ff" stroke="#63b8ff" points="152.72,-366.16 163.28,-367.01 155.55,-359.76 152.72,-366.16"/>
</a>
</g>
</g>
<!-- Node8 -->
<g id="Node000008" class="node">
<title>Node8</title>
<g id="a_Node000008"><a xlink:href="namespacesvg_1_1hamonshu_1_1detail.html#a923139ba449f9cf8a3a63aef2d5ed7ca" target="_top" xlink:title=" ">
<polygon fill="white" stroke="#666666" points="254,-349.5 145,-349.5 145,-322 254,-322 254,-349.5"/>
<text xml:space="preserve" text-anchor="start" x="153" y="-337.9" font-family="SourceSans" font-size="8.00">svg::hamonshu::detail</text>
<text xml:space="preserve" text-anchor="middle" x="199.5" y="-328.15" font-family="SourceSans" font-size="8.00">::make_fans</text>
</a>
</g>
</g>
<!-- Node1&#45;&gt;Node8 -->
<g id="edge8_Node000001_Node000008" class="edge">
<title>Node1&#45;&gt;Node8</title>
<g id="a_edge8_Node000001_Node000008"><a xlink:title=" ">
<path fill="none" stroke="#63b8ff" d="M109.15,-321.38C117.02,-322.64 125.19,-323.96 133.26,-325.26"/>
<polygon fill="#63b8ff" stroke="#63b8ff" points="132.62,-328.7 143.05,-326.83 133.73,-321.79 132.62,-328.7"/>
</a>
</g>
</g>
<!-- Node9 -->
<g id="Node000009" class="node">
<title>Node9</title>
<g id="a_Node000009"><a xlink:href="namespacesvg_1_1hamonshu_1_1detail.html#a88f5b754b69aedac99272722ecdbe366" target="_top" xlink:title=" ">
<polygon fill="white" stroke="#666666" points="254,-303.5 145,-303.5 145,-276 254,-276 254,-303.5"/>
<text xml:space="preserve" text-anchor="start" x="153" y="-291.9" font-family="SourceSans" font-size="8.00">svg::hamonshu::detail</text>
<text xml:space="preserve" text-anchor="middle" x="199.5" y="-282.15" font-family="SourceSans" font-size="8.00">::make_fountains</text>
</a>
</g>
</g>
<!-- Node1&#45;&gt;Node9 -->
<g id="edge9_Node000001_Node000009" class="edge">
<title>Node1&#45;&gt;Node9</title>
<g id="a_edge9_Node000001_Node000009"><a xlink:title=" ">
<path fill="none" stroke="#63b8ff" d="M109.15,-304.12C117.02,-302.86 125.19,-301.54 133.26,-300.24"/>
<polygon fill="#63b8ff" stroke="#63b8ff" points="133.73,-303.71 143.05,-298.67 132.62,-296.8 133.73,-303.71"/>
</a>
</g>
</g>
<!-- Node10 -->
<g id="Node000010" class="node">
<title>Node10</title>
<g id="a_Node000010"><a xlink:href="namespacesvg_1_1hamonshu_1_1detail.html#ae5afb967d9c40ca093e07996e9a646e5" target="_top" xlink:title=" ">
<polygon fill="white" stroke="#666666" points="254,-257.5 145,-257.5 145,-230 254,-230 254,-257.5"/>
<text xml:space="preserve" text-anchor="start" x="153" y="-245.9" font-family="SourceSans" font-size="8.00">svg::hamonshu::detail</text>
<text xml:space="preserve" text-anchor="middle" x="199.5" y="-236.15" font-family="SourceSans" font-size="8.00">::make_lattice</text>
</a>
</g>
</g>
<!-- Node1&#45;&gt;Node10 -->
<g id="edge10_Node000001_Node000010" class="edge">
<title>Node1&#45;&gt;Node10</title>
<g id="a_edge10_Node000001_Node000010"><a xlink:title=" ">
<path fill="none" stroke="#63b8ff" d="M81.89,-298.58C99.59,-289.23 123.51,-276.88 145,-266.75 148.06,-265.31 151.23,-263.85 154.43,-262.41"/>
<polygon fill="#63b8ff" stroke="#63b8ff" points="155.55,-265.74 163.28,-258.49 152.72,-259.34 155.55,-265.74"/>
</a>
</g>
</g>
<!-- Node11 -->
<g id="Node000011" class="node">
<title>Node11</title>
<g id="a_Node000011"><a xlink:href="namespacesvg_1_1hamonshu_1_1detail.html#a2ce5a5ca7dbcf62727f6594a8c9428a4" target="_top" xlink:title=" ">
<polygon fill="white" stroke="#666666" points="254,-211.5 145,-211.5 145,-184 254,-184 254,-211.5"/>
<text xml:space="preserve" text-anchor="start" x="153" y="-199.9" font-family="SourceSans" font-size="8.00">svg::hamonshu::detail</text>
<text xml:space="preserve" text-anchor="middle" x="199.5" y="-190.15" font-family="SourceSans" font-size="8.00">::make_ripples</text>
</a>
</g>
</g>
<!-- Node1&#45;&gt;Node11 -->
<g id="edge11_Node000001_Node000011" class="edge">
<title>Node1&#45;&gt;Node11</title>
<g id="a_edge11_Node000001_Node000011"><a xlink:title=" ">
<path fill="none" stroke="#63b8ff" d="M66.26,-298.59C81.82,-278.93 112.32,-243.23 145,-220.75 146.78,-219.53 148.64,-218.34 150.54,-217.21"/>
<polygon fill="#63b8ff" stroke="#63b8ff" points="151.9,-220.45 159.05,-212.63 148.58,-214.29 151.9,-220.45"/>
</a>
</g>
</g>
<!-- Node12 -->
<g id="Node000012" class="node">
<title>Node12</title>
<g id="a_Node000012"><a xlink:href="namespacesvg_1_1hamonshu_1_1detail.html#a4bfb1eec7a267c79c1da6f15ad6d2976" target="_top" xlink:title=" ">
<polygon fill="white" stroke="#666666" points="254,-165.5 145,-165.5 145,-138 254,-138 254,-165.5"/>
<text xml:space="preserve" text-anchor="start" x="153" y="-153.9" font-family="SourceSans" font-size="8.00">svg::hamonshu::detail</text>
<text xml:space="preserve" text-anchor="middle" x="199.5" y="-144.15" font-family="SourceSans" font-size="8.00">::make_scrolls</text>
</a>
</g>
</g>
<!-- Node1&#45;&gt;Node12 -->
<g id="edge12_Node000001_Node000012" class="edge">
<title>Node1&#45;&gt;Node12</title>
<g id="a_edge12_Node000001_Node000012"><a xlink:title=" ">
<path fill="none" stroke="#63b8ff" d="M61.25,-298.67C73.09,-271.3 102.66,-210.47 145,-174.75 146.11,-173.81 147.26,-172.91 148.45,-172.04"/>
<polygon fill="#63b8ff" stroke="#63b8ff" points="150.22,-175.07 156.82,-166.78 146.49,-169.14 150.22,-175.07"/>
</a>
</g>
</g>
<!-- Node13 -->
<g id="Node000013" class="node">
<title>Node13</title>
<g id="a_Node000013"><a xlink:href="namespacesvg_1_1hamonshu_1_1detail.html#a23b0c8a57c634661c275eb06efe3e5c7" target="_top" xlink:title=" ">
<polygon fill="white" stroke="#666666" points="254,-119.5 145,-119.5 145,-92 254,-92 254,-119.5"/>
<text xml:space="preserve" text-anchor="start" x="153" y="-107.9" font-family="SourceSans" font-size="8.00">svg::hamonshu::detail</text>
<text xml:space="preserve" text-anchor="middle" x="199.5" y="-98.15" font-family="SourceSans" font-size="8.00">::make_spirals</text>
</a>
</g>
</g>
<!-- Node1&#45;&gt;Node13 -->
<g id="edge13_Node000001_Node000013" class="edge">
<title>Node1&#45;&gt;Node13</title>
<g id="a_edge13_Node000001_Node000013"><a xlink:title=" ">
<path fill="none" stroke="#63b8ff" d="M58.77,-298.51C67.25,-264.64 92.96,-178.41 145,-128.75 145.88,-127.91 146.79,-127.1 147.73,-126.32"/>
<polygon fill="#63b8ff" stroke="#63b8ff" points="149.41,-129.42 155.64,-120.85 145.43,-123.66 149.41,-129.42"/>
</a>
</g>
</g>
<!-- Node14 -->
<g id="Node000014" class="node">
<title>Node14</title>
<g id="a_Node000014"><a xlink:href="namespacesvg_1_1hamonshu_1_1detail.html#ac44880151d78a8fcb41a89bd9496bc65" target="_top" xlink:title=" ">
<polygon fill="white" stroke="#666666" points="254,-73.5 145,-73.5 145,-46 254,-46 254,-73.5"/>
<text xml:space="preserve" text-anchor="start" x="153" y="-61.9" font-family="SourceSans" font-size="8.00">svg::hamonshu::detail</text>
<text xml:space="preserve" text-anchor="middle" x="199.5" y="-52.15" font-family="SourceSans" font-size="8.00">::make_spray</text>
</a>
</g>
</g>
<!-- Node1&#45;&gt;Node14 -->
<g id="edge14_Node000001_Node000014" class="edge">
<title>Node1&#45;&gt;Node14</title>
<g id="a_edge14_Node000001_Node000014"><a xlink:title=" ">
<path fill="none" stroke="#63b8ff" d="M57.19,-298.57C62.6,-259.16 82.94,-147.01 145,-82.75 145.72,-82 146.47,-81.28 147.25,-80.58"/>
<polygon fill="#63b8ff" stroke="#63b8ff" points="149.15,-83.52 155.13,-74.77 145,-77.88 149.15,-83.52"/>
</a>
</g>
</g>
<!-- Node15 -->
<g id="Node000015" class="node">
<title>Node15</title>
<g id="a_Node000015"><a xlink:href="namespacesvg_1_1hamonshu_1_1detail.html#aa6672d07336f3c1ce77e573768b6733a" target="_top" xlink:title=" ">
<polygon fill="white" stroke="#666666" points="254,-27.5 145,-27.5 145,0 254,0 254,-27.5"/>
<text xml:space="preserve" text-anchor="start" x="153" y="-15.9" font-family="SourceSans" font-size="8.00">svg::hamonshu::detail</text>
<text xml:space="preserve" text-anchor="middle" x="199.5" y="-6.15" font-family="SourceSans" font-size="8.00">::make_waterlines</text>
</a>
</g>
</g>
<!-- Node1&#45;&gt;Node15 -->
<g id="edge15_Node000001_Node000015" class="edge">
<title>Node1&#45;&gt;Node15</title>
<g id="a_edge15_Node000001_Node000015"><a xlink:title=" ">
<path fill="none" stroke="#63b8ff" d="M56.11,-298.72C58.76,-254.46 72.72,-116.04 145,-36.75 145.59,-36.11 146.2,-35.48 146.82,-34.87"/>
<polygon fill="#63b8ff" stroke="#63b8ff" points="148.93,-37.67 154.69,-28.78 144.64,-32.13 148.93,-37.67"/>
</a>
</g>
</g>
</g>
</svg>

<g id="navigator" transform="translate(0 0)" fill="#404254">
  <rect fill="#f2f5e9" fill-opacity="0.5" stroke="#606060" stroke-width=".5" x="0" y="0" width="60" height="60"/>
  <use id="zoomplus" xlink:href="#zoomPlus" x="17" y="9" onmousedown="handleZoom(evt,'in')"/>
  <use id="zoomminus" xlink:href="#zoomMin" x="42" y="9" onmousedown="handleZoom(evt,'out')"/>
  <use id="reset" xlink:href="#resetDef" x="30" y="36" onmousedown="handleReset()"/>
   <use id="arrowup" xlink:href="#arrowUp" x="0" y="0" onmousedown="handlePan(0,-1)"/>
  <use id="arrowright" xlink:href="#arrowRight" x="0" y="0" onmousedown="handlePan(1,0)"/>
  <use id="arrowdown" xlink:href="#arrowDown" x="0" y="0" onmousedown="handlePan(0,1)"/>
  <use id="arrowleft" xlink:href="#arrowLeft" x="0" y="0" onmousedown="handlePan(-1,0)"/>
</g>
<svg viewBox="0 0 15 15" width="100%" height="30px" preserveAspectRatio="xMaxYMin meet">
 <g id="arrow_out" transform="scale(0.3 0.3)">
  <a xlink:href="namespacesvg_1_1hamonshu_1_1detail_a40cbb9e234d97ae46c1da2830907ca9c_cgraph_org.svg" target="_base">
   <rect id="button" ry="5" rx="5" y="6" x="6" height="38" width="38"
        fill="#f2f5e9" fill-opacity="0.5" stroke="#606060" stroke-width="1.0"/>
   <path id="arrow"
     d="M 11.500037,31.436501 C 11.940474,20.09759 22.043105,11.32322 32.158766,21.979434 L 37.068811,17.246167 C 37.068811,17.246167 37.088388,32 37.088388,32 L 22.160133,31.978069 C 22.160133,31.978069 26.997745,27.140456 26.997745,27.140456 C 18.528582,18.264221 13.291696,25.230495 11.500037,31.436501 z"
     style="fill:#404040;"/>
  </a>
 </g>
</svg>

<style type='text/css'>
<![CDATA[
[data-mouse-over-selected='false'] { opacity: 0.7; }
[data-mouse-over-selected='true']  { opacity: 1.0; }
]]>
</style>
<script type="application/ecmascript"><![CDATA[
document.addEventListener('DOMContentLoaded', (event) => {
  highlightEdges();
  highlightAdjacentNodes();
});
]]></script>
</svg>
