<?xml version="1.0" encoding="UTF-8" standalone="no"?>
<!DOCTYPE svg PUBLIC "-//W3C//DTD SVG 1.1//EN"
 "http://www.w3.org/Graphics/SVG/1.1/DTD/svg11.dtd">
<!-- Generated by graphviz version 13.1.2 (20250808.2320)
 -->
<!-- Title: svg::stack_ids_at Pages: 1 -->
<svg width="1542pt" height="210pt"
 viewBox="0.00 0.00 1542.00 210.00" xmlns="http://www.w3.org/2000/svg" xmlns:xlink="http://www.w3.org/1999/xlink">
<g id="graph0" class="graph" transform="scale(1 1) rotate(0) translate(4 205.62)">
<title>svg::stack_ids_at</title>
<!-- Node1 -->
<g id="Node000001" class="node">
<title>Node1</title>
<g id="a_Node000001"><a xlink:title="Rotate and stack ids at origin point, extending radius for each from point of origin.">
<polygon fill="#999999" stroke="#666666" points="85.75,-103.62 0,-103.62 0,-85.88 85.75,-85.88 85.75,-103.62"/>
<text xml:space="preserve" text-anchor="middle" x="42.88" y="-92.03" font-family="SourceSans" font-size="8.00">svg::stack_ids_at</text>
</a>
</g>
</g>
<!-- Node2 -->
<g id="Node000002" class="node">
<title>Node2</title>
<g id="a_Node000002"><a xlink:href="namespacesvg.html#a0a0dce44cf8a75daa516cdf9fade5a85" target="_top" xlink:title=" ">
<polygon fill="white" stroke="#666666" points="206.75,-103.62 121.75,-103.62 121.75,-85.88 206.75,-85.88 206.75,-103.62"/>
<text xml:space="preserve" text-anchor="middle" x="164.25" y="-92.03" font-family="SourceSans" font-size="8.00">svg::radial_text_r</text>
</a>
</g>
</g>
<!-- Node1&#45;&gt;Node2 -->
<g id="edge1_Node000001_Node000002" class="edge">
<title>Node1&#45;&gt;Node2</title>
<g id="a_edge1_Node000001_Node000002"><a xlink:title=" ">
<path fill="none" stroke="#63b8ff" d="M85.96,-94.75C93.81,-94.75 102.1,-94.75 110.23,-94.75"/>
<polygon fill="#63b8ff" stroke="#63b8ff" points="110.03,-98.25 120.03,-94.75 110.03,-91.25 110.03,-98.25"/>
</a>
</g>
</g>
<!-- Node3 -->
<g id="Node000003" class="node">
<title>Node3</title>
<g id="a_Node000003"><a xlink:href="namespacesvg.html#ab44508c4aeca591141ebec50145b75cd" target="_top" xlink:title="Angle in degrees.">
<polygon fill="white" stroke="#666666" points="361.12,-185.5 249.88,-185.5 249.88,-158 361.12,-158 361.12,-185.5"/>
<text xml:space="preserve" text-anchor="start" x="257.88" y="-173.9" font-family="SourceSans" font-size="8.00">svg::get_circumference</text>
<text xml:space="preserve" text-anchor="middle" x="305.5" y="-164.15" font-family="SourceSans" font-size="8.00">_point_d</text>
</a>
</g>
</g>
<!-- Node2&#45;&gt;Node3 -->
<g id="edge2_Node000002_Node000003" class="edge">
<title>Node2&#45;&gt;Node3</title>
<g id="a_edge2_Node000002_Node000003"><a xlink:title=" ">
<path fill="none" stroke="#63b8ff" d="M176.48,-103.95C191.06,-115.55 217.62,-135.59 242.75,-148.75 245.6,-150.24 248.57,-151.69 251.6,-153.07"/>
<polygon fill="#63b8ff" stroke="#63b8ff" points="250.07,-156.22 260.64,-156.95 252.83,-149.79 250.07,-156.22"/>
</a>
</g>
</g>
<!-- Node5 -->
<g id="Node000005" class="node">
<title>Node5</title>
<g id="a_Node000005"><a xlink:href="namespacesvg.html#ae7eab6d9ce1f55bcbcc997cd24c5abcf" target="_top" xlink:title="Text with typography, arranged ccw around points (x,y) on a circle.">
<polygon fill="white" stroke="#666666" points="354.38,-139.62 256.62,-139.62 256.62,-121.88 354.38,-121.88 354.38,-139.62"/>
<text xml:space="preserve" text-anchor="middle" x="305.5" y="-128.03" font-family="SourceSans" font-size="8.00">svg::radial_text_ccw</text>
</a>
</g>
</g>
<!-- Node2&#45;&gt;Node5 -->
<g id="edge4_Node000002_Node000005" class="edge">
<title>Node2&#45;&gt;Node5</title>
<g id="a_edge4_Node000002_Node000005"><a xlink:title=" ">
<path fill="none" stroke="#63b8ff" d="M201.47,-104.11C218.56,-108.53 239.16,-113.86 257.43,-118.58"/>
<polygon fill="#63b8ff" stroke="#63b8ff" points="256.44,-121.94 266.99,-121.05 258.19,-115.16 256.44,-121.94"/>
</a>
</g>
</g>
<!-- Node23 -->
<g id="Node000023" class="node">
<title>Node23</title>
<g id="a_Node000023"><a xlink:href="namespacesvg.html#a27b1041d0851178e4835e1f623a46161" target="_top" xlink:title="Text with typography, arranged cw around points (x,y) on a circle.">
<polygon fill="white" stroke="#666666" points="352.12,-103.62 258.88,-103.62 258.88,-85.88 352.12,-85.88 352.12,-103.62"/>
<text xml:space="preserve" text-anchor="middle" x="305.5" y="-92.03" font-family="SourceSans" font-size="8.00">svg::radial_text_cw</text>
</a>
</g>
</g>
<!-- Node2&#45;&gt;Node23 -->
<g id="edge25_Node000002_Node000023" class="edge">
<title>Node2&#45;&gt;Node23</title>
<g id="a_edge25_Node000002_Node000023"><a xlink:title=" ">
<path fill="none" stroke="#63b8ff" d="M207.03,-94.75C219.8,-94.75 234.06,-94.75 247.65,-94.75"/>
<polygon fill="#63b8ff" stroke="#63b8ff" points="247.35,-98.25 257.35,-94.75 247.35,-91.25 247.35,-98.25"/>
</a>
</g>
</g>
<!-- Node24 -->
<g id="Node000024" class="node">
<title>Node24</title>
<g id="a_Node000024"><a xlink:href="namespacesvg.html#a010fea242a289d173d521b501140cd72" target="_top" xlink:title="Zero degrees is top, going clockwise (cw).">
<polygon fill="white" stroke="#666666" points="368.25,-67.62 242.75,-67.62 242.75,-49.88 368.25,-49.88 368.25,-67.62"/>
<text xml:space="preserve" text-anchor="middle" x="305.5" y="-56.02" font-family="SourceSans" font-size="8.00">svg::zero_angle_north_ccw</text>
</a>
</g>
</g>
<!-- Node2&#45;&gt;Node24 -->
<g id="edge27_Node000002_Node000024" class="edge">
<title>Node2&#45;&gt;Node24</title>
<g id="a_edge27_Node000002_Node000024"><a xlink:title=" ">
<path fill="none" stroke="#63b8ff" d="M201.47,-85.39C218.56,-80.97 239.16,-75.64 257.43,-70.92"/>
<polygon fill="#63b8ff" stroke="#63b8ff" points="258.19,-74.34 266.99,-68.45 256.44,-67.56 258.19,-74.34"/>
</a>
</g>
</g>
<!-- Node25 -->
<g id="Node000025" class="node">
<title>Node25</title>
<g id="a_Node000025"><a xlink:href="namespacesvg.html#a46164d75fd5109e4ed8879abbacd5c11" target="_top" xlink:title="Zero degrees is top, going clockwise (cw).">
<polygon fill="white" stroke="#666666" points="366,-31.62 245,-31.62 245,-13.88 366,-13.88 366,-31.62"/>
<text xml:space="preserve" text-anchor="middle" x="305.5" y="-20.02" font-family="SourceSans" font-size="8.00">svg::zero_angle_north_cw</text>
</a>
</g>
</g>
<!-- Node2&#45;&gt;Node25 -->
<g id="edge28_Node000002_Node000025" class="edge">
<title>Node2&#45;&gt;Node25</title>
<g id="a_edge28_Node000002_Node000025"><a xlink:title=" ">
<path fill="none" stroke="#63b8ff" d="M176.09,-85.47C190.46,-73.58 217.01,-53.06 242.75,-40.75 246.5,-38.96 250.46,-37.31 254.49,-35.79"/>
<polygon fill="#63b8ff" stroke="#63b8ff" points="255.49,-39.15 263.81,-32.6 253.22,-32.53 255.49,-39.15"/>
</a>
</g>
</g>
<!-- Node4 -->
<g id="Node000004" class="node">
<title>Node4</title>
<g id="a_Node000004"><a xlink:href="namespacesvg.html#aef05ac63d88a6102981d3faf37275297" target="_top" xlink:title="Angle in radians.">
<polygon fill="white" stroke="#666666" points="515.5,-185.5 404.25,-185.5 404.25,-158 515.5,-158 515.5,-185.5"/>
<text xml:space="preserve" text-anchor="start" x="412.25" y="-173.9" font-family="SourceSans" font-size="8.00">svg::get_circumference</text>
<text xml:space="preserve" text-anchor="middle" x="459.88" y="-164.15" font-family="SourceSans" font-size="8.00">_point_r</text>
</a>
</g>
</g>
<!-- Node3&#45;&gt;Node4 -->
<g id="edge3_Node000003_Node000004" class="edge">
<title>Node3&#45;&gt;Node4</title>
<g id="a_edge3_Node000003_Node000004"><a xlink:title=" ">
<path fill="none" stroke="#63b8ff" d="M361.51,-171.75C371.54,-171.75 382.11,-171.75 392.43,-171.75"/>
<polygon fill="#63b8ff" stroke="#63b8ff" points="392.43,-175.25 402.43,-171.75 392.43,-168.25 392.43,-175.25"/>
</a>
</g>
</g>
<!-- Node6 -->
<g id="Node000006" class="node">
<title>Node6</title>
<g id="a_Node000006"><a xlink:href="namespacesvg.html#ad3c5f59f86bb309de4efd1187e5c004b" target="_top" xlink:title="Text at.">
<polygon fill="white" stroke="#666666" points="503.12,-121.62 416.62,-121.62 416.62,-103.88 503.12,-103.88 503.12,-121.62"/>
<text xml:space="preserve" text-anchor="middle" x="459.88" y="-110.03" font-family="SourceSans" font-size="8.00">svg::styled_text_r</text>
</a>
</g>
</g>
<!-- Node5&#45;&gt;Node6 -->
<g id="edge5_Node000005_Node000006" class="edge">
<title>Node5&#45;&gt;Node6</title>
<g id="a_edge5_Node000005_Node000006"><a xlink:title=" ">
<path fill="none" stroke="#63b8ff" d="M354.71,-125.05C370.72,-123.16 388.65,-121.05 405.05,-119.11"/>
<polygon fill="#63b8ff" stroke="#63b8ff" points="405.1,-122.63 414.62,-117.98 404.28,-115.67 405.1,-122.63"/>
</a>
</g>
</g>
<!-- Node7 -->
<g id="Node000007" class="node">
<title>Node7</title>
<g id="a_Node000007"><a xlink:href="group__elements.html#ada0333b46b2547c6152f3f5811016a12" target="_top" xlink:title=" ">
<polygon fill="white" stroke="#666666" points="651.5,-147.5 551.5,-147.5 551.5,-120 651.5,-120 651.5,-147.5"/>
<text xml:space="preserve" text-anchor="start" x="559.5" y="-135.9" font-family="SourceSans" font-size="8.00">svg::element_base::</text>
<text xml:space="preserve" text-anchor="middle" x="601.5" y="-126.15" font-family="SourceSans" font-size="8.00">add_element</text>
</a>
</g>
</g>
<!-- Node6&#45;&gt;Node7 -->
<g id="edge6_Node000006_Node000007" class="edge">
<title>Node6&#45;&gt;Node7</title>
<g id="a_edge6_Node000006_Node000007"><a xlink:title=" ">
<path fill="none" stroke="#63b8ff" d="M503.53,-119.16C515.07,-120.9 527.79,-122.81 540.11,-124.67"/>
<polygon fill="#63b8ff" stroke="#63b8ff" points="539.36,-128.09 549.76,-126.12 540.4,-121.17 539.36,-128.09"/>
</a>
</g>
</g>
<!-- Node9 -->
<g id="Node000009" class="node">
<title>Node9</title>
<g id="a_Node000009"><a xlink:href="namespacesvg.html#a43b88f0c7e911161e757ccc5a5ccd607" target="_top" xlink:title="Text element at.">
<polygon fill="white" stroke="#666666" points="642.12,-101.62 560.88,-101.62 560.88,-83.88 642.12,-83.88 642.12,-101.62"/>
<text xml:space="preserve" text-anchor="middle" x="601.5" y="-90.03" font-family="SourceSans" font-size="8.00">svg::style_text_r</text>
</a>
</g>
</g>
<!-- Node6&#45;&gt;Node9 -->
<g id="edge8_Node000006_Node000009" class="edge">
<title>Node6&#45;&gt;Node9</title>
<g id="a_edge8_Node000006_Node000009"><a xlink:title=" ">
<path fill="none" stroke="#63b8ff" d="M503.53,-106.64C517.97,-104.57 534.25,-102.24 549.29,-100.09"/>
<polygon fill="#63b8ff" stroke="#63b8ff" points="549.59,-103.58 559,-98.69 548.6,-96.65 549.59,-103.58"/>
</a>
</g>
</g>
<!-- Node8 -->
<g id="Node000008" class="node">
<title>Node8</title>
<g id="a_Node000008"><a xlink:href="group__elements.html#ad893ef9c13a15464c96d8a85c08af30f" target="_top" xlink:title=" ">
<polygon fill="white" stroke="#666666" points="798,-142.62 687.5,-142.62 687.5,-124.88 798,-124.88 798,-142.62"/>
<text xml:space="preserve" text-anchor="middle" x="742.75" y="-131.03" font-family="SourceSans" font-size="8.00">svg::element_base::str</text>
</a>
</g>
</g>
<!-- Node7&#45;&gt;Node8 -->
<g id="edge7_Node000007_Node000008" class="edge">
<title>Node7&#45;&gt;Node8</title>
<g id="a_edge7_Node000007_Node000008"><a xlink:title=" ">
<path fill="none" stroke="#63b8ff" d="M651.99,-133.75C659.74,-133.75 667.87,-133.75 675.92,-133.75"/>
<polygon fill="#63b8ff" stroke="#63b8ff" points="675.7,-137.25 685.7,-133.75 675.7,-130.25 675.7,-137.25"/>
</a>
</g>
</g>
<!-- Node10 -->
<g id="Node000010" class="node">
<title>Node10</title>
<g id="a_Node000010"><a xlink:href="structsvg_1_1transform.html#acf9836f4ba647f0dd2b53963a0f714d0" target="_top" xlink:title=" ">
<polygon fill="white" stroke="#666666" points="795.75,-104.62 689.75,-104.62 689.75,-86.88 795.75,-86.88 795.75,-104.62"/>
<text xml:space="preserve" text-anchor="middle" x="742.75" y="-93.03" font-family="SourceSans" font-size="8.00">svg::transform::rotate</text>
</a>
</g>
</g>
<!-- Node9&#45;&gt;Node10 -->
<g id="edge9_Node000009_Node000010" class="edge">
<title>Node9&#45;&gt;Node10</title>
<g id="a_edge9_Node000009_Node000010"><a xlink:title=" ">
<path fill="none" stroke="#63b8ff" d="M642.4,-93.61C653.49,-93.85 665.81,-94.11 677.9,-94.37"/>
<polygon fill="#63b8ff" stroke="#63b8ff" points="677.78,-97.87 687.85,-94.59 677.93,-90.87 677.78,-97.87"/>
</a>
</g>
</g>
<!-- Node11 -->
<g id="Node000011" class="node">
<title>Node11</title>
<g id="a_Node000011"><a xlink:href="namespacesvg.html#a74ca2344cea417d9107d56f4f53c5b0b" target="_top" xlink:title="Text element at.">
<polygon fill="white" stroke="#666666" points="780,-68.62 705.5,-68.62 705.5,-50.88 780,-50.88 780,-68.62"/>
<text xml:space="preserve" text-anchor="middle" x="742.75" y="-57.02" font-family="SourceSans" font-size="8.00">svg::style_text</text>
</a>
</g>
</g>
<!-- Node9&#45;&gt;Node11 -->
<g id="edge10_Node000009_Node000011" class="edge">
<title>Node9&#45;&gt;Node11</title>
<g id="a_edge10_Node000009_Node000011"><a xlink:title=" ">
<path fill="none" stroke="#63b8ff" d="M642.03,-83.38C658.39,-79.51 677.49,-74.98 694.57,-70.93"/>
<polygon fill="#63b8ff" stroke="#63b8ff" points="695.06,-74.41 703.99,-68.7 693.45,-67.6 695.06,-74.41"/>
</a>
</g>
</g>
<!-- Node12 -->
<g id="Node000012" class="node">
<title>Node12</title>
<g id="a_Node000012"><a xlink:href="group__elements.html#aad29e1daf75bdcd69a39575a6807fa0f" target="_top" xlink:title="Either serialize immediately (as below), or create data structure that adds data to data_vec and then...">
<polygon fill="white" stroke="#666666" points="928.75,-119.5 834,-119.5 834,-92 928.75,-92 928.75,-119.5"/>
<text xml:space="preserve" text-anchor="start" x="842" y="-107.9" font-family="SourceSans" font-size="8.00">svg::text_element::</text>
<text xml:space="preserve" text-anchor="middle" x="881.38" y="-98.15" font-family="SourceSans" font-size="8.00">add_data</text>
</a>
</g>
</g>
<!-- Node11&#45;&gt;Node12 -->
<g id="edge11_Node000011_Node000012" class="edge">
<title>Node11&#45;&gt;Node12</title>
<g id="a_edge11_Node000011_Node000012"><a xlink:title=" ">
<path fill="none" stroke="#63b8ff" d="M771.92,-69.05C780.32,-71.84 789.53,-74.91 798,-77.75 807.78,-81.03 818.2,-84.56 828.23,-87.96"/>
<polygon fill="#63b8ff" stroke="#63b8ff" points="826.88,-91.2 837.48,-91.1 829.14,-84.57 826.88,-91.2"/>
</a>
</g>
</g>
<!-- Node21 -->
<g id="Node000021" class="node">
<title>Node21</title>
<g id="a_Node000021"><a xlink:href="group__elements.html#ga13c46848317034d16c62a7d2061ba3d6" target="_top" xlink:title=" ">
<polygon fill="white" stroke="#666666" points="928.75,-73.5 834,-73.5 834,-46 928.75,-46 928.75,-73.5"/>
<text xml:space="preserve" text-anchor="start" x="842" y="-61.9" font-family="SourceSans" font-size="8.00">svg::text_element::</text>
<text xml:space="preserve" text-anchor="middle" x="881.38" y="-52.15" font-family="SourceSans" font-size="8.00">finish_element</text>
</a>
</g>
</g>
<!-- Node11&#45;&gt;Node21 -->
<g id="edge23_Node000011_Node000021" class="edge">
<title>Node11&#45;&gt;Node21</title>
<g id="a_edge23_Node000011_Node000021"><a xlink:title=" ">
<path fill="none" stroke="#63b8ff" d="M780.36,-59.75C793.27,-59.75 808.13,-59.75 822.37,-59.75"/>
<polygon fill="#63b8ff" stroke="#63b8ff" points="822.09,-63.25 832.09,-59.75 822.09,-56.25 822.09,-63.25"/>
</a>
</g>
</g>
<!-- Node22 -->
<g id="Node000022" class="node">
<title>Node22</title>
<g id="a_Node000022"><a xlink:href="group__elements.html#ae45bec611a6ec17ea46aab6d680ae042" target="_top" xlink:title=" ">
<polygon fill="white" stroke="#666666" points="928.75,-27.5 834,-27.5 834,0 928.75,0 928.75,-27.5"/>
<text xml:space="preserve" text-anchor="start" x="842" y="-15.9" font-family="SourceSans" font-size="8.00">svg::text_element::</text>
<text xml:space="preserve" text-anchor="middle" x="881.38" y="-6.15" font-family="SourceSans" font-size="8.00">start_element</text>
</a>
</g>
</g>
<!-- Node11&#45;&gt;Node22 -->
<g id="edge24_Node000011_Node000022" class="edge">
<title>Node11&#45;&gt;Node22</title>
<g id="a_edge24_Node000011_Node000022"><a xlink:title=" ">
<path fill="none" stroke="#63b8ff" d="M771.4,-50.44C787.51,-45.02 808.36,-38 827.51,-31.55"/>
<polygon fill="#63b8ff" stroke="#63b8ff" points="828.43,-34.93 836.79,-28.42 826.2,-28.3 828.43,-34.93"/>
</a>
</g>
</g>
<!-- Node13 -->
<g id="Node000013" class="node">
<title>Node13</title>
<g id="a_Node000013"><a xlink:href="structsvg_1_1typography.html#adbc62f74f1fed3f7c77567250f084f83" target="_top" xlink:title=" ">
<polygon fill="white" stroke="#666666" points="1068.5,-165.5 964.75,-165.5 964.75,-138 1068.5,-138 1068.5,-165.5"/>
<text xml:space="preserve" text-anchor="start" x="972.75" y="-153.9" font-family="SourceSans" font-size="8.00">svg::typography::add</text>
<text xml:space="preserve" text-anchor="middle" x="1016.62" y="-144.15" font-family="SourceSans" font-size="8.00">_attribute</text>
</a>
</g>
</g>
<!-- Node12&#45;&gt;Node13 -->
<g id="edge12_Node000012_Node000013" class="edge">
<title>Node12&#45;&gt;Node13</title>
<g id="a_edge12_Node000012_Node000013"><a xlink:title=" ">
<path fill="none" stroke="#63b8ff" d="M923.44,-119.93C936.23,-124.34 950.51,-129.27 963.93,-133.9"/>
<polygon fill="#63b8ff" stroke="#63b8ff" points="962.44,-137.09 973.03,-137.05 964.72,-130.48 962.44,-137.09"/>
</a>
</g>
</g>
<!-- Node14 -->
<g id="Node000014" class="node">
<title>Node14</title>
<g id="a_Node000014"><a xlink:href="namespacesvg.html#ac10e7d47d031b121174fc0e65232980f" target="_top" xlink:title="Convert point_2t to string.">
<polygon fill="white" stroke="#666666" points="1200.38,-201.62 1128.88,-201.62 1128.88,-183.88 1200.38,-183.88 1200.38,-201.62"/>
<text xml:space="preserve" text-anchor="middle" x="1164.62" y="-190.03" font-family="SourceSans" font-size="8.00">svg::to_string</text>
</a>
</g>
</g>
<!-- Node12&#45;&gt;Node14 -->
<g id="edge22_Node000012_Node000014" class="edge">
<title>Node12&#45;&gt;Node14</title>
<g id="a_edge22_Node000012_Node000014"><a xlink:title=" ">
<path fill="none" stroke="#63b8ff" d="M894.1,-119.76C908.75,-136.15 935.46,-162.58 964.75,-174.75 1013.95,-195.19 1075.76,-197.58 1117.3,-196.22"/>
<polygon fill="#63b8ff" stroke="#63b8ff" points="1117.36,-199.72 1127.2,-195.8 1117.06,-192.73 1117.36,-199.72"/>
</a>
</g>
</g>
<!-- Node16 -->
<g id="Node000016" class="node">
<title>Node16</title>
<g id="a_Node000016"><a xlink:href="group__elements.html#a53d72a7ff728ad1d4d027254530bcf3d" target="_top" xlink:title=" ">
<polygon fill="white" stroke="#666666" points="1066.62,-119.5 966.62,-119.5 966.62,-92 1066.62,-92 1066.62,-119.5"/>
<text xml:space="preserve" text-anchor="start" x="974.62" y="-107.9" font-family="SourceSans" font-size="8.00">svg::element_base::</text>
<text xml:space="preserve" text-anchor="middle" x="1016.62" y="-98.15" font-family="SourceSans" font-size="8.00">add_transform</text>
</a>
</g>
</g>
<!-- Node12&#45;&gt;Node16 -->
<g id="edge15_Node000012_Node000016" class="edge">
<title>Node12&#45;&gt;Node16</title>
<g id="a_edge15_Node000012_Node000016"><a xlink:title=" ">
<path fill="none" stroke="#63b8ff" d="M928.98,-105.75C937.43,-105.75 946.36,-105.75 955.14,-105.75"/>
<polygon fill="#63b8ff" stroke="#63b8ff" points="955.04,-109.25 965.04,-105.75 955.04,-102.25 955.04,-109.25"/>
</a>
</g>
</g>
<!-- Node18 -->
<g id="Node000018" class="node">
<title>Node18</title>
<g id="a_Node000018"><a xlink:href="namespacesvg.html#ac91e1a80dd6b2df85fd06a07320bc6ce" target="_top" xlink:title="Escape unescaped data for a double&#45;quoted XML attribute value.">
<polygon fill="white" stroke="#666666" points="1384,-72.62 1260.75,-72.62 1260.75,-54.88 1384,-54.88 1384,-72.62"/>
<text xml:space="preserve" text-anchor="middle" x="1322.38" y="-61.02" font-family="SourceSans" font-size="8.00">svg::escape_xml_attribute</text>
</a>
</g>
</g>
<!-- Node12&#45;&gt;Node18 -->
<g id="edge19_Node000012_Node000018" class="edge">
<title>Node12&#45;&gt;Node18</title>
<g id="a_edge19_Node000012_Node000018"><a xlink:title=" ">
<path fill="none" stroke="#63b8ff" d="M926.44,-91.53C938.72,-88.09 952.15,-84.82 964.75,-82.75 1062.32,-66.73 1176.71,-63.3 1249.11,-62.98"/>
<polygon fill="#63b8ff" stroke="#63b8ff" points="1248.86,-66.48 1258.85,-62.96 1248.84,-59.48 1248.86,-66.48"/>
</a>
</g>
</g>
<!-- Node20 -->
<g id="Node000020" class="node">
<title>Node20</title>
<g id="a_Node000020"><a xlink:href="namespacesvg.html#a26bf6966511ae3c348843c1881b190d8" target="_top" xlink:title="Escape unescaped data for an XML text node.">
<polygon fill="white" stroke="#666666" points="1373.88,-35.62 1270.88,-35.62 1270.88,-17.88 1373.88,-17.88 1373.88,-35.62"/>
<text xml:space="preserve" text-anchor="middle" x="1322.38" y="-24.02" font-family="SourceSans" font-size="8.00">svg::escape_xml_text</text>
</a>
</g>
</g>
<!-- Node12&#45;&gt;Node20 -->
<g id="edge20_Node000012_Node000020" class="edge">
<title>Node12&#45;&gt;Node20</title>
<g id="a_edge20_Node000012_Node000020"><a xlink:title=" ">
<path fill="none" stroke="#63b8ff" d="M910.98,-91.64C932.47,-81.14 959.12,-68.35 964.75,-66.75 1065.29,-38.17 1187.22,-29.87 1259.33,-27.54"/>
<polygon fill="#63b8ff" stroke="#63b8ff" points="1259.05,-31.05 1268.95,-27.26 1258.85,-24.06 1259.05,-31.05"/>
</a>
</g>
</g>
<!-- Node13&#45;&gt;Node14 -->
<g id="edge13_Node000013_Node000014" class="edge">
<title>Node13&#45;&gt;Node14</title>
<g id="a_edge13_Node000013_Node000014"><a xlink:title=" ">
<path fill="none" stroke="#63b8ff" d="M1068.28,-165.97C1085.01,-170.67 1103.47,-175.86 1119.66,-180.4"/>
<polygon fill="#63b8ff" stroke="#63b8ff" points="1118.42,-183.69 1128.99,-183.02 1120.31,-176.95 1118.42,-183.69"/>
</a>
</g>
</g>
<!-- Node15 -->
<g id="Node000015" class="node">
<title>Node15</title>
<g id="a_Node000015"><a xlink:href="structsvg_1_1typography.html#a174c1ffb4e56214d71523ffe7e422561" target="_top" xlink:title=" ">
<polygon fill="white" stroke="#666666" points="1212.75,-165.5 1116.5,-165.5 1116.5,-138 1212.75,-138 1212.75,-165.5"/>
<text xml:space="preserve" text-anchor="start" x="1124.5" y="-153.9" font-family="SourceSans" font-size="8.00">svg::typography::to</text>
<text xml:space="preserve" text-anchor="middle" x="1164.62" y="-144.15" font-family="SourceSans" font-size="8.00">_string</text>
</a>
</g>
</g>
<!-- Node13&#45;&gt;Node15 -->
<g id="edge14_Node000013_Node000015" class="edge">
<title>Node13&#45;&gt;Node15</title>
<g id="a_edge14_Node000013_Node000015"><a xlink:title=" ">
<path fill="none" stroke="#63b8ff" d="M1068.69,-151.75C1080.4,-151.75 1092.95,-151.75 1104.96,-151.75"/>
<polygon fill="#63b8ff" stroke="#63b8ff" points="1104.75,-155.25 1114.75,-151.75 1104.75,-148.25 1104.75,-155.25"/>
</a>
</g>
</g>
<!-- Node17 -->
<g id="Node000017" class="node">
<title>Node17</title>
<g id="a_Node000017"><a xlink:href="group__elements.html#ae50258851ebbaf08c7eebc3fbdbf1ac8" target="_top" xlink:title="Common transforms include rotate(180)">
<polygon fill="white" stroke="#666666" points="1224.75,-119.5 1104.5,-119.5 1104.5,-92 1224.75,-92 1224.75,-119.5"/>
<text xml:space="preserve" text-anchor="start" x="1112.5" y="-107.9" font-family="SourceSans" font-size="8.00">svg::element_base::</text>
<text xml:space="preserve" text-anchor="middle" x="1164.62" y="-98.15" font-family="SourceSans" font-size="8.00">make_transform_attribute</text>
</a>
</g>
</g>
<!-- Node16&#45;&gt;Node17 -->
<g id="edge16_Node000016_Node000017" class="edge">
<title>Node16&#45;&gt;Node17</title>
<g id="a_edge16_Node000016_Node000017"><a xlink:title=" ">
<path fill="none" stroke="#63b8ff" d="M1067.05,-105.75C1075.34,-105.75 1084.07,-105.75 1092.77,-105.75"/>
<polygon fill="#63b8ff" stroke="#63b8ff" points="1092.62,-109.25 1102.62,-105.75 1092.62,-102.25 1092.62,-109.25"/>
</a>
</g>
</g>
<!-- Node17&#45;&gt;Node18 -->
<g id="edge17_Node000017_Node000018" class="edge">
<title>Node17&#45;&gt;Node18</title>
<g id="a_edge17_Node000017_Node000018"><a xlink:title=" ">
<path fill="none" stroke="#63b8ff" d="M1218.35,-91.53C1236.98,-86.51 1257.75,-80.91 1275.73,-76.06"/>
<polygon fill="#63b8ff" stroke="#63b8ff" points="1276.6,-79.45 1285.35,-73.47 1274.78,-72.69 1276.6,-79.45"/>
</a>
</g>
</g>
<!-- Node19 -->
<g id="Node000019" class="node">
<title>Node19</title>
<g id="a_Node000019"><a xlink:href="namespacesvg_1_1detail.html#a0dabd749799988c1aae4474d923c6fd1" target="_top" xlink:title="Escape unescaped character data at its XML serialization boundary. Existing entity spellings are data...">
<polygon fill="white" stroke="#666666" points="1533.5,-53.62 1420,-53.62 1420,-35.88 1533.5,-35.88 1533.5,-53.62"/>
<text xml:space="preserve" text-anchor="middle" x="1476.75" y="-42.02" font-family="SourceSans" font-size="8.00">svg::detail::escape_xml</text>
</a>
</g>
</g>
<!-- Node18&#45;&gt;Node19 -->
<g id="edge18_Node000018_Node000019" class="edge">
<title>Node18&#45;&gt;Node19</title>
<g id="a_edge18_Node000018_Node000019"><a xlink:title=" ">
<path fill="none" stroke="#63b8ff" d="M1384.47,-56.13C1392.26,-55.16 1400.27,-54.16 1408.15,-53.18"/>
<polygon fill="#63b8ff" stroke="#63b8ff" points="1408.58,-56.65 1418.07,-51.94 1407.71,-49.71 1408.58,-56.65"/>
</a>
</g>
</g>
<!-- Node20&#45;&gt;Node19 -->
<g id="edge21_Node000020_Node000019" class="edge">
<title>Node20&#45;&gt;Node19</title>
<g id="a_edge21_Node000020_Node000019"><a xlink:title=" ">
<path fill="none" stroke="#63b8ff" d="M1374.11,-32.74C1385.09,-34.04 1396.86,-35.43 1408.35,-36.79"/>
<polygon fill="#63b8ff" stroke="#63b8ff" points="1407.88,-40.26 1418.22,-37.95 1408.7,-33.3 1407.88,-40.26"/>
</a>
</g>
</g>
<!-- Node23&#45;&gt;Node6 -->
<g id="edge26_Node000023_Node000006" class="edge">
<title>Node23&#45;&gt;Node6</title>
<g id="a_edge26_Node000023_Node000006"><a xlink:title=" ">
<path fill="none" stroke="#63b8ff" d="M352.22,-100.15C368.9,-102.12 387.92,-104.37 405.23,-106.41"/>
<polygon fill="#63b8ff" stroke="#63b8ff" points="404.47,-109.85 414.81,-107.54 405.29,-102.9 404.47,-109.85"/>
</a>
</g>
</g>
</g>
</svg>
